<svg xmlns="http://www.w3.org/2000/svg" xmlns:xlink="http://www.w3.org/1999/xlink" width="290px" height="290px" preserveAspectRatio="xMidYMid meet" viewBox="0 0 32 32" style="-ms-transform: rotate(360deg); -webkit-transform: rotate(360deg); transform: rotate(360deg);"><g fill="none"><path fill="url(#IconifyId-18336ff944b-bf80ea-28503)" d="M7.75 2.005h17a2 2 0 0 1 2 2v22h-19v-24Z"/><path fill="url(#IconifyId-18336ff944b-bf80ea-28504)" d="M7.75 2.005h17a2 2 0 0 1 2 2v22h-19v-24Z"/><path fill="url(#IconifyId-18336ff944b-bf80ea-28505)" d="M5.25 26.505h21.5v2.5h-.5l-.5.5H5.25v-3Z"/><path fill="url(#IconifyId-18336ff944b-bf80ea-28506)" d="M5.25 26.505h21.5v2.5h-.5l-.5.5H5.25v-3Z"/><path fill="url(#IconifyId-18336ff944b-bf80ea-28507)" d="M6.25 2.005a1.5 1.5 0 0 0-1.5 1.5v24.5h1a1 1 0 0 1 1-1h1v-25h-1.5Z"/><path fill="url(#IconifyId-18336ff944b-bf80ea-28509)" d="M6.25 2.005a1.5 1.5 0 0 0-1.5 1.5v24.5h1a1 1 0 0 1 1-1h1v-25h-1.5Z"/><path fill="url(#IconifyId-18336ff944b-bf80ea-28508)" d="M6.25 26.005a1.5 1.5 0 0 0-1.5 1.5v1a1.5 1.5 0 0 0 1.5 1.5h19.408c.653 0 1.092-.335 1.092-1h-20a1 1 0 1 1 0-2h20v-1H6.25Z"/><rect width="2.575" height="1.272" x="9.452" y="3.631" fill="#CEC8D4" rx=".636" transform="rotate(45 9.452 3.63)"/><rect width="2.575" height="1.272" x="9.452" y="12.645" fill="#CD62AB" rx=".636" transform="rotate(45 9.452 12.645)"/><rect width="2.575" height="1.272" x="9.452" y="21.645" fill="#3E8FD4" rx=".636" transform="rotate(45 9.452 21.645)"/><rect width="2.575" height="1.272" x="20.38" y="3.631" fill="#CBC5D1" rx=".636" transform="rotate(45 20.38 3.63)"/><rect width="2.575" height="1.272" x="20.38" y="12.645" fill="#CB60A9" rx=".636" transform="rotate(45 20.38 12.645)"/><rect width="2.575" height="1.272" x="20.38" y="21.645" fill="#3C8DD1" rx=".636" transform="rotate(45 20.38 21.645)"/><rect width="2.575" height="1.272" fill="#CE62AB" rx=".636" transform="scale(-1 1) rotate(45 -11.19 -14.62)"/><rect width="2.575" height="1.272" fill="#418FD3" rx=".636" transform="scale(-1 1) rotate(45 -22.072 -10.113)"/><rect width="2.575" height="1.272" fill="#CDC7D3" rx=".636" transform="scale(-1 1) rotate(45 -32.936 -5.613)"/><rect width="2.575" height="1.272" fill="#CC61AA" rx=".636" transform="scale(-1 1) rotate(45 -18.68 -16.952)"/><rect width="2.575" height="1.272" x="24.126" y="8.244" fill="#CAC5D1" rx=".636" transform="rotate(45 24.126 8.244)"/><rect width="2.575" height="1.272" fill="#428DD1" rx=".636" transform="matrix(-1 0 0 1 22.128 8.968)"/><rect width="2.575" height="1.272" fill="#CDC7D3" rx=".636" transform="matrix(-1 0 0 1 14.443 8.968)"/><rect width="2.575" height="1.272" fill="#3F8DD2" rx=".636" transform="scale(-1 1) rotate(45 -29.545 -12.452)"/><rect width="2.575" height="1.272" x="24.126" y="17.244" fill="#CA5FA8" rx=".636" transform="rotate(45 24.126 17.244)"/><rect width="2.575" height="1.272" fill="#438FD4" rx=".636" transform="matrix(0 -1 -1 0 10.27 10.892)"/><rect width="2.575" height="1.272" fill="#448ED2" rx=".636" transform="matrix(-1 0 0 1 18.285 4.355)"/><rect width="2.575" height="1.272" fill="#CBC5D1" rx=".636" transform="matrix(-1 0 0 1 22.128 17.968)"/><rect width="2.575" height="1.272" fill="#CFCAD6" rx=".636" transform="matrix(-1 0 0 1 18.285 13.37)"/><rect width="2.575" height="1.272" fill="#CC60A9" rx=".636" transform="matrix(-1 0 0 1 18.285 22.37)"/><rect width="2.575" height="1.272" fill="#CD61AA" rx=".636" transform="matrix(-1 0 0 1 14.443 17.968)"/><rect width="2.575" height="1.272" fill="#CA61A9" rx=".636" transform="matrix(0 -1 -1 0 25.223 6.279)"/><rect width="2.575" height="1.272" fill="#418DD1" rx=".636" transform="matrix(0 -1 -1 0 25.223 15.293)"/><rect width="2.575" height="1.272" fill="#CAC5D1" rx=".636" transform="matrix(0 -1 -1 0 25.223 24.293)"/><rect width="2.575" height="1.272" fill="#CEC8D4" rx=".636" transform="matrix(0 -1 -1 0 10.27 19.892)"/><defs><linearGradient id="IconifyId-18336ff944b-bf80ea-28503" x1="17.25" x2="17.25" y1="2.005" y2="26.005" gradientUnits="userSpaceOnUse"><stop stop-color="#5D4573"/><stop offset="1" stop-color="#4B3E59"/></linearGradient><linearGradient id="IconifyId-18336ff944b-bf80ea-28504" x1="28.44" x2="25.73" y1="5.387" y2="5.484" gradientUnits="userSpaceOnUse"><stop offset=".409" stop-color="#806E91"/><stop offset="1" stop-color="#806E91" stop-opacity="0"/></linearGradient><linearGradient id="IconifyId-18336ff944b-bf80ea-28505" x1="6.471" x2="26.569" y1="28.42" y2="28.42" gradientUnits="userSpaceOnUse"><stop stop-color="#D6C0EA"/><stop offset="1" stop-color="#DCCCED"/></linearGradient><linearGradient id="IconifyId-18336ff944b-bf80ea-28506" x1="16" x2="16" y1="26.743" y2="28.162" gradientUnits="userSpaceOnUse"><stop stop-color="#9F8CB4"/><stop offset="1" stop-color="#9F8CB4" stop-opacity="0"/></linearGradient><linearGradient id="IconifyId-18336ff944b-bf80ea-28507" x1="4.955" x2="7.75" y1="16.742" y2="16.742" gradientUnits="userSpaceOnUse"><stop stop-color="#4E4459"/><stop offset="1" stop-color="#453C4E"/></linearGradient><linearGradient id="IconifyId-18336ff944b-bf80ea-28508" x1="6.181" x2="26.75" y1="28.969" y2="28.936" gradientUnits="userSpaceOnUse"><stop stop-color="#512F71"/><stop offset="1" stop-color="#4F2E6D"/></linearGradient><radialGradient id="IconifyId-18336ff944b-bf80ea-28509" cx="0" cy="0" r="1" gradientTransform="matrix(0 -6.6454 1.17096 0 5.149 26.678)" gradientUnits="userSpaceOnUse"><stop stop-color="#51475C"/><stop offset="1" stop-color="#51475C" stop-opacity="0"/></radialGradient></defs></g></svg>
