<?xml version="1.0" standalone="no"?>
<!DOCTYPE svg PUBLIC "-//W3C//DTD SVG 20010904//EN"
 "http://www.w3.org/TR/2001/REC-SVG-20010904/DTD/svg10.dtd">
<svg version="1.0" xmlns="http://www.w3.org/2000/svg"
 width="700.000000pt" height="700.000000pt" viewBox="0 0 700.000000 700.000000"
 preserveAspectRatio="xMidYMid meet">
<metadata>
Created by potrace 1.14, written by Peter Selinger 2001-2017
</metadata>
<g transform="translate(0.000000,700.000000) scale(0.100000,-0.100000)"
fill="#000000" stroke="none">
<path d="M1246 6535 c-73 -30 -147 -100 -178 -169 l-23 -51 0 -2820 0 -2820
36 -65 c23 -43 52 -78 85 -102 96 -74 -102 -68 2324 -68 1608 0 2196 3 2221
11 79 27 124 81 136 164 l6 45 -2214 0 c-2120 0 -2216 1 -2254 19 -135 61
-165 238 -59 345 16 15 42 35 59 44 28 16 205 17 2248 20 l2217 2 -2 2568 -3
2567 -23 58 c-44 109 -140 205 -250 249 l-57 23 -2105 2 -2105 3 -59 -25z
m879 -404 c56 -26 259 -235 274 -283 35 -108 -84 -217 -182 -167 -31 16 -256
239 -273 271 -37 70 4 164 82 188 43 12 55 11 99 -9z m2390 0 c57 -26 259
-235 274 -284 37 -111 -84 -217 -187 -163 -44 23 -270 258 -277 289 -17 66 27
148 88 166 47 13 58 13 102 -8z m820 -1010 c56 -26 259 -235 274 -283 24 -73
-24 -156 -99 -173 -63 -14 -90 2 -218 129 -68 66 -130 133 -138 148 -33 63 -2
146 66 180 44 23 65 22 115 -1z m-2233 -113 c62 -47 74 -133 26 -193 -37 -48
-72 -55 -254 -55 -152 0 -170 2 -205 22 -101 57 -85 214 26 248 16 5 107 8
201 7 169 -2 171 -2 206 -29z m834 -957 c32 -20 64 -74 64 -110 0 -33 -25 -83
-54 -111 -27 -24 -31 -25 -211 -28 -145 -3 -190 0 -219 12 -94 39 -102 182
-13 236 29 18 51 20 217 20 163 0 189 -2 216 -19z m-1751 -865 c53 -35 60 -65
60 -256 0 -149 -3 -180 -18 -207 -51 -94 -179 -95 -237 -1 -19 31 -20 47 -18
219 3 206 4 207 73 251 35 22 101 20 140 -6z m2574 -134 c96 -48 105 -172 18
-236 -26 -19 -42 -21 -216 -21 -163 0 -190 2 -214 18 -66 43 -85 127 -44 188
40 61 71 69 257 69 137 0 171 -3 199 -18z m701 -832 c48 -34 55 -68 55 -260 0
-153 -2 -180 -18 -203 -58 -89 -190 -86 -239 4 -17 30 -18 54 -16 216 3 165 5
184 24 210 46 63 131 78 194 33z m-2409 -38 c45 -26 65 -72 61 -145 -3 -41
-240 -282 -293 -298 -109 -33 -203 61 -170 170 15 51 254 287 297 293 38 6 72
-1 105 -20z"/>
</g>
</svg>
