<svg width="1200" height="630" viewBox="0 0 1200 630" fill="none" xmlns="http://www.w3.org/2000/svg">
<rect width="1200" height="630" fill="white"/>
<path d="M1068.94 42.5212H1141.19C1143.44 42.5212 1145.6 43.4168 1147.2 45.0108C1148.79 46.6049 1149.69 48.7669 1149.69 51.0212V144.521H1068.94V42.5212V42.5212Z" fill="url(#paint0_linear_101_550)"/>
<path d="M1068.94 42.5212H1141.19C1143.44 42.5212 1145.6 43.4168 1147.2 45.0108C1148.79 46.6049 1149.69 48.7669 1149.69 51.0212V144.521H1068.94V42.5212V42.5212Z" fill="url(#paint1_linear_101_550)"/>
<path d="M1058.31 146.646H1149.69V157.271H1147.56L1145.44 159.396H1058.31V146.646Z" fill="url(#paint2_linear_101_550)"/>
<path d="M1058.31 146.646H1149.69V157.271H1147.56L1145.44 159.396H1058.31V146.646Z" fill="url(#paint3_linear_101_550)"/>
<path d="M1062.56 42.5212C1060.87 42.5212 1059.25 43.1929 1058.05 44.3884C1056.86 45.584 1056.19 47.2055 1056.19 48.8962V153.021H1060.44C1060.44 151.894 1060.89 150.813 1061.68 150.016C1062.48 149.219 1063.56 148.771 1064.69 148.771H1068.94V42.5212H1062.56V42.5212Z" fill="url(#paint4_linear_101_550)"/>
<path d="M1062.56 42.5212C1060.87 42.5212 1059.25 43.1929 1058.05 44.3884C1056.86 45.584 1056.19 47.2055 1056.19 48.8962V153.021H1060.44C1060.44 151.894 1060.89 150.813 1061.68 150.016C1062.48 149.219 1063.56 148.771 1064.69 148.771H1068.94V42.5212H1062.56V42.5212Z" fill="url(#paint5_radial_101_550)"/>
<path d="M1062.56 144.521C1060.87 144.521 1059.25 145.193 1058.05 146.388C1056.86 147.584 1056.19 149.205 1056.19 150.896V155.146C1056.19 156.837 1056.86 158.459 1058.05 159.654C1059.25 160.85 1060.87 161.521 1062.56 161.521H1145.05C1147.82 161.521 1149.69 160.097 1149.69 157.271H1064.69C1063.56 157.271 1062.48 156.823 1061.68 156.026C1060.89 155.229 1060.44 154.148 1060.44 153.021C1060.44 151.894 1060.89 150.813 1061.68 150.016C1062.48 149.219 1063.56 148.771 1064.69 148.771H1149.69V144.521H1062.56Z" fill="url(#paint6_linear_101_550)"/>
<path d="M1082 55.2576L1078.08 51.3419C1077.02 50.2863 1075.31 50.2863 1074.26 51.3419C1073.2 52.3974 1073.2 54.1089 1074.26 55.1645L1078.17 59.0803C1079.23 60.1358 1080.94 60.1358 1082 59.0803C1083.05 58.0247 1083.05 56.3132 1082 55.2576Z" fill="#CEC8D4"/>
<path d="M1082 93.5683L1078.08 89.6525C1077.03 88.5969 1075.32 88.5969 1074.26 89.6525C1073.2 90.7081 1073.2 92.4196 1074.26 93.4751L1078.18 97.3909C1079.23 98.4465 1080.94 98.4465 1082 97.3909C1083.05 96.3353 1083.05 94.6239 1082 93.5683Z" fill="#CD62AB"/>
<path d="M1082 131.818L1078.08 127.903C1077.03 126.847 1075.32 126.847 1074.26 127.903C1073.2 128.958 1073.2 130.67 1074.26 131.725L1078.18 135.641C1079.23 136.697 1080.94 136.697 1082 135.641C1083.05 134.585 1083.05 132.874 1082 131.818Z" fill="#3E8FD4"/>
<path d="M1128.44 55.2576L1124.52 51.3419C1123.47 50.2863 1121.76 50.2863 1120.7 51.3419C1119.65 52.3974 1119.65 54.1089 1120.7 55.1645L1124.62 59.0803C1125.67 60.1358 1127.38 60.1358 1128.44 59.0803C1129.49 58.0247 1129.49 56.3132 1128.44 55.2576Z" fill="#CBC5D1"/>
<path d="M1128.44 93.5683L1124.53 89.6525C1123.47 88.5969 1121.76 88.5969 1120.7 89.6525C1119.65 90.7081 1119.65 92.4196 1120.7 93.4751L1124.62 97.3909C1125.68 98.4465 1127.39 98.4465 1128.44 97.3909C1129.5 96.3353 1129.5 94.6239 1128.44 93.5683Z" fill="#CB60A9"/>
<path d="M1128.44 131.818L1124.53 127.903C1123.47 126.847 1121.76 126.847 1120.7 127.903C1119.65 128.958 1119.65 130.67 1120.7 131.725L1124.62 135.641C1125.68 136.697 1127.39 136.697 1128.44 135.641C1129.5 134.585 1129.5 132.874 1128.44 131.818Z" fill="#3C8DD1"/>
<path d="M1088.04 55.2564L1091.95 51.3406C1093.01 50.285 1094.72 50.285 1095.78 51.3406C1096.83 52.3962 1096.83 54.1077 1095.78 55.1632L1091.86 59.079C1090.81 60.1346 1089.09 60.1346 1088.04 59.079C1086.98 58.0234 1086.98 56.312 1088.04 55.2564Z" fill="#CE62AB"/>
<path d="M1088.04 93.5693L1091.96 89.6535C1093.01 88.5979 1094.72 88.5979 1095.78 89.6535C1096.83 90.7091 1096.83 92.4205 1095.78 93.4761L1091.86 97.3919C1090.81 98.4475 1089.1 98.4475 1088.04 97.3919C1086.98 96.3363 1086.98 94.6249 1088.04 93.5693Z" fill="#418FD3"/>
<path d="M1088.04 131.819L1091.96 127.904C1093.01 126.848 1094.72 126.848 1095.78 127.904C1096.83 128.959 1096.83 130.671 1095.78 131.726L1091.86 135.642C1090.81 136.698 1089.1 136.698 1088.04 135.642C1086.98 134.586 1086.98 132.875 1088.04 131.819Z" fill="#CDC7D3"/>
<path d="M1104.37 74.8625L1108.29 70.9467C1109.34 69.8911 1111.05 69.8911 1112.11 70.9467C1113.16 72.0023 1113.16 73.7137 1112.11 74.7693L1108.19 78.6851C1107.14 79.7407 1105.43 79.7407 1104.37 78.6851C1103.31 77.6295 1103.31 75.9181 1104.37 74.8625Z" fill="#CC61AA"/>
<path d="M1144.36 74.8641L1140.45 70.9483C1139.39 69.8927 1137.68 69.8927 1136.62 70.9483C1135.57 72.0039 1135.57 73.7153 1136.62 74.7709L1140.54 78.6867C1141.6 79.7423 1143.31 79.7423 1144.36 78.6867C1145.42 77.6311 1145.42 75.9197 1144.36 74.8641Z" fill="#CAC5D1"/>
<path d="M1121.8 72.114H1127.34C1128.83 72.114 1130.04 73.3242 1130.04 74.817C1130.04 76.3098 1128.83 77.52 1127.34 77.52H1121.8C1120.31 77.52 1119.1 76.3098 1119.1 74.817C1119.1 73.3242 1120.31 72.114 1121.8 72.114Z" fill="#428DD1"/>
<path d="M1089.14 72.114H1094.68C1096.17 72.114 1097.38 73.3242 1097.38 74.817C1097.38 76.3098 1096.17 77.52 1094.68 77.52H1089.14C1087.65 77.52 1086.44 76.3098 1086.44 74.817C1086.44 73.3242 1087.65 72.114 1089.14 72.114Z" fill="#CDC7D3"/>
<path d="M1104.37 113.116L1108.29 109.2C1109.34 108.144 1111.05 108.144 1112.11 109.2C1113.17 110.255 1113.17 111.967 1112.11 113.023L1108.19 116.938C1107.14 117.994 1105.43 117.994 1104.37 116.938C1103.32 115.883 1103.32 114.171 1104.37 113.116Z" fill="#3F8DD2"/>
<path d="M1144.36 113.114L1140.45 109.198C1139.39 108.143 1137.68 108.143 1136.62 109.198C1135.57 110.254 1135.57 111.965 1136.62 113.021L1140.54 116.937C1141.6 117.992 1143.31 117.992 1144.36 116.937C1145.42 115.881 1145.42 114.17 1144.36 113.114Z" fill="#CA5FA8"/>
<path d="M1079.65 72.0503V77.588C1079.65 79.0808 1078.44 80.291 1076.94 80.291C1075.45 80.291 1074.24 79.0808 1074.24 77.588V72.0503C1074.24 70.5574 1075.45 69.3473 1076.94 69.3473C1078.44 69.3473 1079.65 70.5574 1079.65 72.0503Z" fill="#438FD4"/>
<path d="M1105.47 52.5088H1111.01C1112.5 52.5088 1113.71 53.719 1113.71 55.2118C1113.71 56.7046 1112.5 57.9148 1111.01 57.9148H1105.47C1103.98 57.9148 1102.77 56.7046 1102.77 55.2118C1102.77 53.719 1103.98 52.5088 1105.47 52.5088Z" fill="#448ED2"/>
<path d="M1121.8 110.364H1127.34C1128.83 110.364 1130.04 111.574 1130.04 113.067C1130.04 114.56 1128.83 115.77 1127.34 115.77H1121.8C1120.31 115.77 1119.1 114.56 1119.1 113.067C1119.1 111.574 1120.31 110.364 1121.8 110.364Z" fill="#CBC5D1"/>
<path d="M1105.47 90.8225H1111.01C1112.5 90.8225 1113.71 92.0327 1113.71 93.5255C1113.71 95.0183 1112.5 96.2285 1111.01 96.2285H1105.47C1103.98 96.2285 1102.77 95.0183 1102.77 93.5255C1102.77 92.0327 1103.98 90.8225 1105.47 90.8225Z" fill="#CFCAD6"/>
<path d="M1105.47 129.073H1111.01C1112.5 129.073 1113.71 130.283 1113.71 131.776C1113.71 133.268 1112.5 134.479 1111.01 134.479H1105.47C1103.98 134.479 1102.77 133.268 1102.77 131.776C1102.77 130.283 1103.98 129.073 1105.47 129.073Z" fill="#CC60A9"/>
<path d="M1089.14 110.364H1094.68C1096.17 110.364 1097.38 111.574 1097.38 113.067C1097.38 114.56 1096.17 115.77 1094.68 115.77H1089.14C1087.65 115.77 1086.44 114.56 1086.44 113.067C1086.44 111.574 1087.65 110.364 1089.14 110.364Z" fill="#CD61AA"/>
<path d="M1143.2 52.445V57.9828C1143.2 59.4756 1141.99 60.6858 1140.49 60.6858C1139 60.6858 1137.79 59.4756 1137.79 57.9828V52.445C1137.79 50.9522 1139 49.742 1140.49 49.742C1141.99 49.742 1143.2 50.9522 1143.2 52.445Z" fill="#CA61A9"/>
<path d="M1143.2 90.7545V96.2922C1143.2 97.7851 1141.99 98.9952 1140.49 98.9952C1139 98.9952 1137.79 97.7851 1137.79 96.2922V90.7545C1137.79 89.2617 1139 88.0515 1140.49 88.0515C1141.99 88.0515 1143.2 89.2617 1143.2 90.7545Z" fill="#418DD1"/>
<path d="M1143.2 129.004V134.542C1143.2 136.035 1141.99 137.245 1140.49 137.245C1139 137.245 1137.79 136.035 1137.79 134.542V129.004C1137.79 127.512 1139 126.301 1140.49 126.301C1141.99 126.301 1143.2 127.512 1143.2 129.004Z" fill="#CAC5D1"/>
<path d="M1079.65 110.3V115.838C1079.65 117.331 1078.44 118.541 1076.94 118.541C1075.45 118.541 1074.24 117.331 1074.24 115.838V110.3C1074.24 108.807 1075.45 107.597 1076.94 107.597C1078.44 107.597 1079.65 108.807 1079.65 110.3Z" fill="#CEC8D4"/>
<path d="M56.3636 280.455V277.636C58.8939 277.636 60.6591 277.106 61.6591 276.045C62.6742 274.985 63.1818 273.212 63.1818 270.727V263.455C63.1818 261.364 63.3788 259.553 63.7727 258.023C64.1818 256.492 64.8409 255.227 65.75 254.227C66.6591 253.227 67.8712 252.485 69.3864 252C70.9015 251.515 72.7727 251.273 75 251.273V255.727C73.2424 255.727 71.8561 256 70.8409 256.545C69.8409 257.091 69.1288 257.939 68.7045 259.091C68.2955 260.227 68.0909 261.682 68.0909 263.455V272.545C68.0909 273.727 67.9318 274.803 67.6136 275.773C67.3106 276.742 66.7424 277.576 65.9091 278.273C65.0758 278.97 63.8864 279.508 62.3409 279.886C60.8106 280.265 58.8182 280.455 56.3636 280.455ZM75 309.455C72.7727 309.455 70.9015 309.212 69.3864 308.727C67.8712 308.242 66.6591 307.5 65.75 306.5C64.8409 305.5 64.1818 304.235 63.7727 302.705C63.3788 301.174 63.1818 299.364 63.1818 297.273V290C63.1818 287.515 62.6742 285.742 61.6591 284.682C60.6591 283.621 58.8939 283.091 56.3636 283.091V280.273C58.8182 280.273 60.8106 280.462 62.3409 280.841C63.8864 281.22 65.0758 281.758 65.9091 282.455C66.7424 283.152 67.3106 283.985 67.6136 284.955C67.9318 285.924 68.0909 287 68.0909 288.182V297.273C68.0909 299.045 68.2955 300.5 68.7045 301.636C69.1288 302.773 69.8409 303.614 70.8409 304.159C71.8561 304.72 73.2424 305 75 305V309.455ZM56.3636 283.091V277.636H61.7273V283.091H56.3636ZM79.5511 280.455V277.636C82.0814 277.636 83.8466 277.106 84.8466 276.045C85.8617 274.985 86.3693 273.212 86.3693 270.727V263.455C86.3693 261.364 86.5663 259.553 86.9602 258.023C87.3693 256.492 88.0284 255.227 88.9375 254.227C89.8466 253.227 91.0587 252.485 92.5739 252C94.089 251.515 95.9602 251.273 98.1875 251.273V255.727C96.4299 255.727 95.0436 256 94.0284 256.545C93.0284 257.091 92.3163 257.939 91.892 259.091C91.483 260.227 91.2784 261.682 91.2784 263.455V272.545C91.2784 273.727 91.1193 274.803 90.8011 275.773C90.4981 276.742 89.9299 277.576 89.0966 278.273C88.2633 278.97 87.0739 279.508 85.5284 279.886C83.9981 280.265 82.0057 280.455 79.5511 280.455ZM98.1875 309.455C95.9602 309.455 94.089 309.212 92.5739 308.727C91.0587 308.242 89.8466 307.5 88.9375 306.5C88.0284 305.5 87.3693 304.235 86.9602 302.705C86.5663 301.174 86.3693 299.364 86.3693 297.273V290C86.3693 287.515 85.8617 285.742 84.8466 284.682C83.8466 283.621 82.0814 283.091 79.5511 283.091V280.273C82.0057 280.273 83.9981 280.462 85.5284 280.841C87.0739 281.22 88.2633 281.758 89.0966 282.455C89.9299 283.152 90.4981 283.985 90.8011 284.955C91.1193 285.924 91.2784 287 91.2784 288.182V297.273C91.2784 299.045 91.483 300.5 91.892 301.636C92.3163 302.773 93.0284 303.614 94.0284 304.159C95.0436 304.72 96.4299 305 98.1875 305V309.455ZM79.5511 283.091V277.636H84.9148V283.091H79.5511ZM110.648 279V300H105.284V265.091H110.466V270.545H110.92C111.739 268.773 112.981 267.348 114.648 266.273C116.314 265.182 118.466 264.636 121.102 264.636C123.466 264.636 125.534 265.121 127.307 266.091C129.08 267.045 130.458 268.5 131.443 270.455C132.428 272.394 132.92 274.848 132.92 277.818V300H127.557V278.182C127.557 275.439 126.845 273.303 125.42 271.773C123.996 270.227 122.042 269.455 119.557 269.455C117.845 269.455 116.314 269.826 114.966 270.568C113.633 271.311 112.58 272.394 111.807 273.818C111.034 275.242 110.648 276.97 110.648 279ZM152.994 300.818C150.782 300.818 148.775 300.402 146.972 299.568C145.169 298.72 143.737 297.5 142.676 295.909C141.616 294.303 141.085 292.364 141.085 290.091C141.085 288.091 141.479 286.47 142.267 285.227C143.055 283.97 144.108 282.985 145.426 282.273C146.744 281.561 148.199 281.03 149.79 280.682C151.396 280.318 153.009 280.03 154.631 279.818C156.752 279.545 158.472 279.341 159.79 279.205C161.123 279.053 162.093 278.803 162.699 278.455C163.32 278.106 163.631 277.5 163.631 276.636V276.455C163.631 274.212 163.017 272.47 161.79 271.227C160.578 269.985 158.737 269.364 156.267 269.364C153.706 269.364 151.699 269.924 150.244 271.045C148.79 272.167 147.767 273.364 147.176 274.636L142.085 272.818C142.994 270.697 144.206 269.045 145.722 267.864C147.252 266.667 148.919 265.833 150.722 265.364C152.54 264.879 154.328 264.636 156.085 264.636C157.206 264.636 158.494 264.773 159.949 265.045C161.419 265.303 162.835 265.841 164.199 266.659C165.578 267.477 166.722 268.712 167.631 270.364C168.54 272.015 168.994 274.227 168.994 277V300H163.631V295.273H163.358C162.994 296.03 162.388 296.841 161.54 297.705C160.691 298.568 159.563 299.303 158.153 299.909C156.744 300.515 155.025 300.818 152.994 300.818ZM153.812 296C155.934 296 157.722 295.583 159.176 294.75C160.646 293.917 161.752 292.841 162.494 291.523C163.252 290.205 163.631 288.818 163.631 287.364V282.455C163.403 282.727 162.903 282.977 162.131 283.205C161.373 283.417 160.494 283.606 159.494 283.773C158.509 283.924 157.547 284.061 156.608 284.182C155.684 284.288 154.934 284.379 154.358 284.455C152.964 284.636 151.661 284.932 150.449 285.341C149.252 285.735 148.282 286.333 147.54 287.136C146.813 287.924 146.449 289 146.449 290.364C146.449 292.227 147.138 293.636 148.517 294.591C149.911 295.53 151.676 296 153.812 296ZM178.784 300V265.091H183.966V270.545H184.42C185.148 268.682 186.322 267.235 187.943 266.205C189.564 265.159 191.511 264.636 193.784 264.636C196.087 264.636 198.004 265.159 199.534 266.205C201.08 267.235 202.284 268.682 203.148 270.545H203.511C204.405 268.742 205.746 267.311 207.534 266.25C209.322 265.174 211.466 264.636 213.966 264.636C217.087 264.636 219.64 265.614 221.625 267.568C223.61 269.508 224.602 272.53 224.602 276.636V300H219.239V276.636C219.239 274.061 218.534 272.22 217.125 271.114C215.716 270.008 214.057 269.455 212.148 269.455C209.693 269.455 207.792 270.197 206.443 271.682C205.095 273.152 204.42 275.015 204.42 277.273V300H198.966V276.091C198.966 274.106 198.322 272.508 197.034 271.295C195.746 270.068 194.087 269.455 192.057 269.455C190.663 269.455 189.36 269.826 188.148 270.568C186.951 271.311 185.981 272.341 185.239 273.659C184.511 274.962 184.148 276.47 184.148 278.182V300H178.784ZM249.045 300.727C245.682 300.727 242.78 299.985 240.341 298.5C237.917 297 236.045 294.909 234.727 292.227C233.424 289.53 232.773 286.394 232.773 282.818C232.773 279.242 233.424 276.091 234.727 273.364C236.045 270.621 237.879 268.485 240.227 266.955C242.591 265.409 245.348 264.636 248.5 264.636C250.318 264.636 252.114 264.939 253.886 265.545C255.659 266.152 257.273 267.136 258.727 268.5C260.182 269.848 261.341 271.636 262.205 273.864C263.068 276.091 263.5 278.833 263.5 282.091V284.364H236.591V279.727H258.045C258.045 277.758 257.652 276 256.864 274.455C256.091 272.909 254.985 271.689 253.545 270.795C252.121 269.902 250.439 269.455 248.5 269.455C246.364 269.455 244.515 269.985 242.955 271.045C241.409 272.091 240.22 273.455 239.386 275.136C238.553 276.818 238.136 278.621 238.136 280.545V283.636C238.136 286.273 238.591 288.508 239.5 290.341C240.424 292.159 241.705 293.545 243.341 294.5C244.977 295.439 246.879 295.909 249.045 295.909C250.455 295.909 251.727 295.712 252.864 295.318C254.015 294.909 255.008 294.303 255.841 293.5C256.674 292.682 257.318 291.667 257.773 290.455L262.955 291.909C262.409 293.667 261.492 295.212 260.205 296.545C258.917 297.864 257.326 298.894 255.432 299.636C253.538 300.364 251.409 300.727 249.045 300.727ZM287.568 280.273V283.091C285.038 283.091 283.265 283.621 282.25 284.682C281.25 285.742 280.75 287.515 280.75 290V297.273C280.75 299.364 280.545 301.174 280.136 302.705C279.742 304.235 279.091 305.5 278.182 306.5C277.273 307.5 276.061 308.242 274.545 308.727C273.03 309.212 271.159 309.455 268.932 309.455V305C270.689 305 272.068 304.72 273.068 304.159C274.083 303.614 274.795 302.773 275.205 301.636C275.629 300.5 275.841 299.045 275.841 297.273V288.182C275.841 287 275.992 285.924 276.295 284.955C276.614 283.985 277.189 283.152 278.023 282.455C278.856 281.758 280.038 281.22 281.568 280.841C283.114 280.462 285.114 280.273 287.568 280.273ZM268.932 251.273C271.159 251.273 273.03 251.515 274.545 252C276.061 252.485 277.273 253.227 278.182 254.227C279.091 255.227 279.742 256.492 280.136 258.023C280.545 259.553 280.75 261.364 280.75 263.455V270.727C280.75 273.212 281.25 274.985 282.25 276.045C283.265 277.106 285.038 277.636 287.568 277.636V280.455C285.114 280.455 283.114 280.265 281.568 279.886C280.038 279.508 278.856 278.97 278.023 278.273C277.189 277.576 276.614 276.742 276.295 275.773C275.992 274.803 275.841 273.727 275.841 272.545V263.455C275.841 261.682 275.629 260.227 275.205 259.091C274.795 257.939 274.083 257.091 273.068 256.545C272.068 256 270.689 255.727 268.932 255.727V251.273ZM287.568 277.636V283.091H282.205V277.636H287.568ZM310.756 280.273V283.091C308.225 283.091 306.453 283.621 305.438 284.682C304.438 285.742 303.938 287.515 303.938 290V297.273C303.938 299.364 303.733 301.174 303.324 302.705C302.93 304.235 302.278 305.5 301.369 306.5C300.46 307.5 299.248 308.242 297.733 308.727C296.218 309.212 294.347 309.455 292.119 309.455V305C293.877 305 295.256 304.72 296.256 304.159C297.271 303.614 297.983 302.773 298.392 301.636C298.816 300.5 299.028 299.045 299.028 297.273V288.182C299.028 287 299.18 285.924 299.483 284.955C299.801 283.985 300.377 283.152 301.21 282.455C302.044 281.758 303.225 281.22 304.756 280.841C306.301 280.462 308.301 280.273 310.756 280.273ZM292.119 251.273C294.347 251.273 296.218 251.515 297.733 252C299.248 252.485 300.46 253.227 301.369 254.227C302.278 255.227 302.93 256.492 303.324 258.023C303.733 259.553 303.938 261.364 303.938 263.455V270.727C303.938 273.212 304.438 274.985 305.438 276.045C306.453 277.106 308.225 277.636 310.756 277.636V280.455C308.301 280.455 306.301 280.265 304.756 279.886C303.225 279.508 302.044 278.97 301.21 278.273C300.377 277.576 299.801 276.742 299.483 275.773C299.18 274.803 299.028 273.727 299.028 272.545V263.455C299.028 261.682 298.816 260.227 298.392 259.091C297.983 257.939 297.271 257.091 296.256 256.545C295.256 256 293.877 255.727 292.119 255.727V251.273ZM310.756 277.636V283.091H305.392V277.636H310.756Z" fill="black"/>
<path d="M815.224 545.006C816.654 546.28 818.448 548.074 819.28 549.218L820.684 547.814C819.8 546.722 817.98 545.032 816.55 543.81L815.224 545.006ZM817.174 566.56C817.564 566.066 818.24 565.546 822.582 562.452C822.4 562.062 822.114 561.282 821.984 560.762L817.382 563.882L816.836 564.714L817.174 566.56ZM813.196 551.35V553.222H818.708V551.35H813.196ZM817.174 566.586C817.174 565.806 819.28 564.038 819.28 564.038V551.35H817.33V562.608C817.33 563.882 816.55 564.766 816.082 565.13C816.42 565.442 816.966 566.17 817.174 566.586ZM824.22 553.534V555.406H834.282V553.534H824.22ZM823.388 553.534V563.544C823.388 566.066 824.298 566.716 827.236 566.716C827.86 566.716 832.54 566.716 833.216 566.716C836.05 566.716 836.7 565.52 837.012 561.282C836.44 561.152 835.582 560.84 835.114 560.476C834.958 564.168 834.698 564.818 833.086 564.818C832.072 564.818 828.146 564.818 827.34 564.818C825.676 564.818 825.364 564.584 825.364 563.544V553.534H823.388ZM822.894 545.006V546.93H833.216V556.732H835.166V545.006H822.894ZM839.716 553.014V554.756H862.44V553.014H839.716ZM849.96 553.898V564.948C849.96 565.312 849.856 565.442 849.44 565.468C848.998 565.494 847.542 565.494 846.034 565.416C846.294 565.936 846.58 566.638 846.71 567.132C848.738 567.158 850.038 567.132 850.844 566.846C851.676 566.586 851.962 566.092 851.962 564.974V553.898H849.96ZM851.728 555.016L850.142 555.484C852.274 560.58 856.174 564.376 861.478 566.066C861.764 565.52 862.336 564.766 862.778 564.376C857.578 562.972 853.6 559.488 851.728 555.016ZM859.034 555.38C857.656 556.784 855.316 558.63 853.574 559.722L854.926 560.814C856.668 559.748 858.956 558.11 860.698 556.602L859.034 555.38ZM841.484 556.758C843.174 557.72 845.228 559.176 846.216 560.19L847.594 558.838C846.554 557.824 844.422 556.472 842.784 555.562L841.484 556.758ZM839.768 563.596L840.808 565.338C843.642 564.142 847.464 562.478 851.026 560.918L850.636 559.254C846.684 560.892 842.42 562.608 839.768 563.596ZM842.264 548.828V550.622H857.838V548.828H842.264ZM857.266 544.616V544.876C857.214 546.956 857.032 551.038 856.798 553.924L858.8 554.028C859.06 551.194 859.294 547.424 859.372 544.642L857.838 544.538L857.474 544.616H857.266ZM841.484 544.616V546.436H857.812V544.616H841.484ZM873.724 552H880.042V557.98H873.724V552ZM871.878 550.258V559.696H881.992V550.258H871.878ZM866.132 544.226V567.054H868.134V546.202H885.788V567.054H887.868V544.226H866.132ZM867.25 563.83V565.676H886.984V563.83H867.25ZM894.68 543.16V567.054H896.578V543.16H894.68ZM892.08 548.178C891.898 550.31 891.43 553.144 890.754 554.886L892.366 555.432C893.042 553.534 893.51 550.544 893.64 548.412L892.08 548.178ZM896.786 547.944C897.592 549.504 898.424 551.584 898.71 552.832L900.192 552.078C899.854 550.882 898.996 548.88 898.164 547.346L896.786 547.944ZM900.114 545.63V547.502H912.386V545.63H900.114ZM911.918 545.63C899.906 559.332 899.334 561.36 899.334 563.102C899.334 565.026 900.79 566.222 903.962 566.222H910.8C913.504 566.222 914.284 565.182 914.57 559.67C914.05 559.566 913.322 559.28 912.828 559.02C912.672 563.466 912.36 564.35 910.904 564.35H903.832C902.298 564.35 901.284 563.908 901.284 562.894C901.284 561.646 901.986 559.748 913.686 546.54C913.79 546.436 913.92 546.306 913.972 546.202L912.724 545.552L912.256 545.63H911.918ZM920.082 567.782C922.812 566.846 924.58 564.714 924.58 561.906C924.58 560.086 923.8 558.89 922.344 558.89C921.304 558.89 920.368 559.54 920.368 560.762C920.368 562.01 921.252 562.634 922.318 562.634C922.812 562.634 923.332 562.504 923.696 562.036L922.292 560.06L922.786 562.27C922.786 564.22 921.616 565.546 919.484 566.43L920.082 567.782ZM957.028 562.426V564.272H964.724V562.426H957.028ZM956.222 545.422V566.352H958.094V547.268H963.632V566.066H965.582V545.422H956.222ZM948.526 547.554V552.754C948.526 556.784 947.928 561.958 942.858 565.572C943.274 565.858 943.976 566.612 944.236 567.028C949.618 563.18 950.502 557.2 950.502 552.78V547.554H948.526ZM945.848 546.67V548.49H954.61V546.67H945.848ZM943.144 553.664V555.536H955.39V553.664H943.144ZM949.878 557.096L948.682 558.214C949.878 559.488 952.868 563.05 953.96 564.636L955.286 562.998C954.454 562.01 950.892 558.006 949.878 557.096ZM946.082 543.16C945.458 546.332 944.392 549.452 942.832 551.454C943.274 551.714 944.106 552.26 944.444 552.572C945.978 550.362 947.226 547.008 947.98 543.524L946.082 543.16ZM981.338 546.878H989.216V554.678H981.338V546.878ZM979.414 545.006V556.55H991.218V545.006H979.414ZM987.162 559.67C988.566 561.958 990.022 565 990.594 566.846L992.518 566.066C991.946 564.22 990.386 561.282 988.956 559.02L987.162 559.67ZM981.26 559.072C980.48 561.75 979.128 564.298 977.36 565.936C977.854 566.222 978.712 566.768 979.076 567.054C980.818 565.26 982.352 562.478 983.262 559.514L981.26 559.072ZM970.626 545.032C972.056 546.228 973.824 547.918 974.656 549.036L976.008 547.658C975.15 546.592 973.356 544.98 971.926 543.862L970.626 545.032ZM972.706 566.352C973.096 565.832 973.798 565.286 978.322 561.75C978.088 561.36 977.75 560.606 977.568 560.086L972.81 563.674L972.316 564.506L972.706 566.352ZM969.274 551.324V553.222H974.084V551.324H969.274ZM972.706 566.352C972.706 565.572 974.838 563.57 974.838 563.57V551.324H972.94V562.218C972.94 563.596 972.004 564.61 971.484 565.026C971.848 565.338 972.472 565.988 972.706 566.352ZM1008.51 561.906V563.778H1016.57V561.906H1008.51ZM1007.78 545.604V565.936H1009.68V547.45H1015.5V565.754H1017.48V545.604H1007.78ZM1000.4 545.37V567.054H1002.35V545.37H1000.4ZM995.3 550.856V552.676H1006.9V550.856H995.3ZM1000.29 551.506C999.252 555.094 996.86 559.306 994.676 561.542C995.014 562.01 995.508 562.79 995.716 563.336C998.056 560.84 1000.45 556.03 1001.67 552L1000.29 551.506ZM1005.39 543.42C1003.13 544.356 998.992 545.136 995.534 545.604C995.768 546.046 996.002 546.696 996.106 547.138C999.668 546.722 1003.93 545.968 1006.71 544.928L1005.39 543.42ZM1002.19 553.196L1001.2 554.158C1002.16 555.302 1004.69 558.63 1005.52 560.008L1006.71 558.422C1006.04 557.564 1003.02 554.028 1002.19 553.196ZM1025.17 557.798V567.054H1026.97V557.798H1025.17ZM1022.37 551.844V553.43H1029.91V551.844H1022.37ZM1022.24 546.722V548.412H1029.1V557.044H1022.24V558.734H1030.69V546.722H1022.24ZM1021.61 546.722V560.06H1023.12V546.722H1021.61ZM1025.17 543.238V547.918H1025.3V557.98H1026.84V547.918H1026.97V543.238H1025.17ZM1031.44 544.408V546.202H1041.79V544.408H1031.44ZM1042.65 551.532V551.948C1042.15 560.71 1041.61 563.934 1040.88 564.714C1040.64 565.026 1040.41 565.104 1039.99 565.078C1039.58 565.104 1038.69 565.078 1037.68 565C1037.99 565.494 1038.17 566.274 1038.2 566.846C1039.27 566.898 1040.25 566.898 1040.85 566.82C1041.58 566.742 1042.07 566.534 1042.57 565.91C1043.45 564.844 1044 561.646 1044.54 552.494C1044.57 552.208 1044.6 551.532 1044.6 551.532H1042.65ZM1032.09 553.69C1032.09 553.274 1033.55 552.78 1033.55 552.78V552.728C1036.67 550.986 1039.92 548.386 1043.24 545.266L1041.76 544.2L1040.85 544.564V544.72C1038.41 547.346 1034.95 549.868 1033.91 550.518C1032.95 551.194 1031.93 551.766 1031.26 551.87C1031.54 552.312 1031.96 553.248 1032.09 553.69ZM1032.09 553.69C1032.32 553.508 1033.13 553.378 1034.22 553.378H1043.4V551.532H1033.18L1032.09 552.052V553.69ZM1039.73 552.468C1038.28 558.422 1035.5 563.128 1031.15 565.936C1031.6 566.196 1032.35 566.742 1032.66 567.054C1036.93 563.96 1039.84 559.124 1041.45 552.806L1039.73 552.468ZM1035.47 552.728C1034.53 555.874 1032.71 558.578 1030.32 560.268C1030.74 560.554 1031.47 561.1 1031.75 561.386C1034.12 559.488 1036.12 556.576 1037.21 553.066L1035.47 552.728ZM1053.33 559.826V563.986C1053.33 566.014 1054.09 566.534 1056.92 566.534C1057.52 566.534 1061.73 566.534 1062.35 566.534C1064.72 566.534 1065.32 565.754 1065.58 562.478C1065.03 562.348 1064.23 562.088 1063.78 561.75C1063.68 564.402 1063.47 564.766 1062.2 564.766C1061.26 564.766 1057.75 564.766 1057.05 564.766C1055.52 564.766 1055.26 564.662 1055.26 563.96V559.826H1053.33ZM1056.76 558.916C1057.99 560.112 1059.55 561.802 1060.33 562.79L1061.73 561.62C1060.92 560.632 1059.34 559.046 1058.12 557.902L1056.76 558.916ZM1065.92 559.774C1066.98 561.49 1068.33 563.804 1068.96 565.156L1070.75 564.246C1070.1 562.92 1068.7 560.684 1067.63 559.02L1065.92 559.774ZM1049.64 559.514C1049.15 561.256 1048.26 563.466 1047.2 564.844L1048.91 565.728C1049.98 564.272 1050.81 561.932 1051.36 560.19L1049.64 559.514ZM1047.4 547.06V548.75H1058.17V547.06H1047.4ZM1052.19 543.238V558.396H1054.03V543.238H1052.19ZM1052.11 548.1C1051.02 550.96 1048.89 554.002 1046.83 555.484C1047.22 555.796 1047.79 556.42 1048.11 556.862C1050.19 555.12 1052.32 551.792 1053.46 548.568L1052.11 548.1ZM1053.88 550.128L1052.84 551.09C1053.88 551.87 1056.4 554.028 1057.31 554.938L1058.38 553.378C1057.65 552.806 1054.74 550.648 1053.88 550.128ZM1061.11 550.102H1067.61V552.546H1061.11V550.102ZM1061.11 554.054H1067.61V556.524H1061.11V554.054ZM1061.11 546.15H1067.61V548.542H1061.11V546.15ZM1059.31 544.538V558.136H1069.48V544.538H1059.31ZM1075.41 547.346V549.088H1081.49V562.582H1075.41V564.35H1083.31V547.346H1075.41ZM1074.24 547.346V566.43H1076.06V547.346H1074.24ZM1075.28 554.574V556.316H1082.45V554.574H1075.28ZM1078.21 543.108C1078.01 544.46 1077.51 546.436 1077.07 547.684L1078.63 548.074C1079.15 546.904 1079.8 545.11 1080.32 543.498L1078.21 543.108ZM1087 547.268V549.088H1094.98V547.268H1087ZM1094.31 547.268V547.684C1093.94 559.15 1093.53 563.466 1092.67 564.402C1092.38 564.74 1092.07 564.818 1091.55 564.818C1090.95 564.818 1089.39 564.792 1087.7 564.662C1088.07 565.182 1088.3 565.988 1088.35 566.56C1089.81 566.638 1091.34 566.69 1092.23 566.586C1093.14 566.508 1093.74 566.274 1094.31 565.52C1095.35 564.246 1095.71 560.216 1096.13 548.282C1096.13 547.996 1096.13 547.268 1096.13 547.268H1094.31ZM1087.55 543.056C1086.72 546.67 1085.29 550.258 1083.52 552.546C1083.99 552.806 1084.79 553.352 1085.13 553.664C1086.92 551.194 1088.46 547.372 1089.42 543.498L1087.55 543.056ZM1086.35 554.028C1087.78 555.926 1089.52 558.5 1090.3 560.086L1091.97 559.046C1091.14 557.512 1089.34 554.99 1087.86 553.144L1086.35 554.028ZM1114.51 543.16V561.282H1116.36V543.16H1114.51ZM1106.32 553.898L1107.07 555.614L1121.06 549.66L1120.33 547.996L1106.32 553.898ZM1109.13 545.604V562.972C1109.13 565.806 1110.01 566.508 1113 566.508C1113.65 566.508 1118.7 566.508 1119.4 566.508C1122.13 566.508 1122.75 565.364 1123.06 561.776C1122.52 561.672 1121.76 561.36 1121.3 561.048C1121.11 564.038 1120.85 564.74 1119.32 564.74C1118.28 564.74 1113.91 564.74 1113.05 564.74C1111.31 564.74 1111 564.428 1111 562.998V545.604H1109.13ZM1120 548.256C1120 553.43 1119.97 557.122 1119.81 557.798C1119.68 558.396 1119.42 558.5 1119.03 558.5C1118.75 558.5 1117.89 558.5 1117.29 558.474C1117.53 558.916 1117.68 559.644 1117.76 560.164C1118.46 560.164 1119.5 560.164 1120.2 559.982C1120.96 559.8 1121.45 559.306 1121.61 558.266C1121.79 557.252 1121.87 553.352 1121.87 548.464L1121.95 548.1L1120.57 547.58L1120.23 547.866L1119.76 548.256H1120ZM1099.07 549.426V551.272H1107.33V549.426H1099.07ZM1102.42 543.472V560.346H1104.27V543.472H1102.42ZM1098.83 561.022L1099.61 562.946C1101.93 561.958 1104.86 560.632 1107.65 559.306L1107.23 557.564C1104.14 558.89 1100.94 560.242 1098.83 561.022ZM1125.35 547.658V549.53H1148.62V547.658H1125.35ZM1133.85 553.82V555.692H1144.25V553.82H1133.85ZM1143.55 553.82L1143.53 554.158C1143.08 561.282 1142.56 564.194 1141.73 564.948C1141.45 565.208 1141.08 565.234 1140.51 565.234C1139.83 565.234 1137.99 565.234 1136.12 565.052C1136.48 565.598 1136.77 566.404 1136.79 566.976C1138.56 567.054 1140.28 567.106 1141.19 567.054C1142.17 566.976 1142.82 566.794 1143.42 566.17C1144.44 565.13 1144.96 562.244 1145.48 554.756C1145.53 554.47 1145.55 553.82 1145.55 553.82H1143.55ZM1133.41 548.698C1133.13 554.912 1132.68 562.166 1125.09 565.598C1125.59 565.988 1126.21 566.69 1126.5 567.184C1134.43 563.388 1135.18 555.588 1135.57 548.698H1133.41ZM1135.88 543.108V548.464H1137.88V543.108H1135.88Z" fill="#35495E" fill-opacity="0.5"/>
<path d="M1012.71 498.912C1012.71 499.661 1012.07 500.612 1010.8 501.765C1009.77 502.693 1008.95 503.217 1008.35 503.337C1008.31 503.352 1008.26 503.359 1008.22 503.359C1008.01 503.359 1007.87 503.21 1007.79 502.91L1007.41 499.451C1007.3 498.553 1007.24 498.096 1007.23 498.081V498.014L1006.89 498.328C1003.76 501.278 1000.57 502.933 997.324 503.292C996.95 503.337 996.583 503.359 996.224 503.359C993.304 503.359 991.215 501.667 989.957 498.283L989.598 498.62C986.513 501.555 983.271 503.135 979.872 503.359C979.632 503.374 979.4 503.382 979.176 503.382C976.945 503.382 975.193 502.364 973.92 500.327C973.755 500.073 973.605 499.803 973.471 499.519C972.932 498.41 972.662 497.22 972.662 495.947C972.662 493.671 973.546 491.298 975.312 488.827C976.855 486.716 978.622 485.121 980.613 484.043C981.617 483.459 982.672 483.13 983.78 483.055C983.825 483.055 983.923 483.055 984.072 483.055C986.109 483.055 987.329 483.594 987.733 484.672C987.853 484.986 987.913 485.346 987.913 485.75C987.913 486.663 987.561 487.494 986.857 488.243C986.169 488.962 985.345 489.321 984.387 489.321C984.237 489.336 984.132 489.344 984.072 489.344C983.638 489.344 983.181 489.157 982.702 488.782C982.088 488.333 981.474 488.063 980.86 487.974C980.651 487.959 980.426 487.951 980.187 487.951C979.108 487.951 978.472 488.161 978.277 488.58C978.382 488.34 978.352 488.4 978.188 488.76C977.768 489.703 977.559 490.699 977.559 491.747C977.559 493.873 978.285 495.61 979.737 496.958C980.666 497.841 981.669 498.336 982.747 498.44C982.867 498.455 983.032 498.463 983.241 498.463C984.754 498.463 986.221 498.133 987.644 497.475C988.093 497.265 988.415 497.063 988.609 496.868C988.969 496.509 989.283 495.783 989.553 494.689C989.987 493.012 990.451 491.695 990.945 490.736C991.664 489.359 992.667 488.026 993.955 486.738C996.351 484.342 998.627 483.115 1000.78 483.055H1001.05C1003.48 483.055 1004.69 483.968 1004.69 485.795C1004.69 487.083 1004.07 488.093 1002.83 488.827C1002.48 489.037 1002.16 489.179 1001.86 489.254C1001.7 489.299 1001.45 489.321 1001.12 489.321C1000.52 489.321 999.967 489.127 999.458 488.737C998.904 488.333 998.372 488.093 997.863 488.019C997.609 487.974 997.324 487.951 997.01 487.951H996.74C995.587 487.951 994.891 488.558 994.651 489.771C994.547 490.22 994.494 490.826 994.494 491.59C994.494 493.746 995.205 495.506 996.628 496.868C997.496 497.707 998.462 498.223 999.525 498.418C999.675 498.448 999.937 498.463 1000.31 498.463C1001.9 498.463 1003.42 498.074 1004.87 497.295C1005.47 496.98 1005.86 496.681 1006.04 496.396C1006.56 495.633 1006.86 494.66 1006.94 493.477C1007.03 492.024 1007.12 491.051 1007.23 490.557C1007.3 490.167 1007.4 489.785 1007.52 489.411C1007.9 488.273 1008.59 487.053 1009.61 485.75C1010.72 484.357 1011.81 483.474 1012.89 483.1C1012.99 483.07 1013.11 483.055 1013.25 483.055C1013.5 483.055 1013.63 483.182 1013.63 483.437C1013.63 483.751 1013.47 484.14 1013.14 484.604C1012.55 485.383 1012.17 486.282 1011.99 487.3C1011.89 487.989 1011.83 488.782 1011.83 489.681C1011.83 491.103 1012.04 493.364 1012.46 496.464C1012.63 497.647 1012.71 498.463 1012.71 498.912Z" fill="url(#paint7_linear_101_550)"/>
<path d="M1016.55 489.568C1016.55 488.999 1017.11 488.131 1018.24 486.963C1019.72 485.421 1021.22 484.365 1022.75 483.796C1023.39 483.556 1023.98 483.437 1024.5 483.437H1024.95C1026 483.437 1026.72 484.013 1027.11 485.166C1027.23 485.525 1027.29 485.862 1027.29 486.177V489.276C1027.29 489.771 1027.29 490.25 1027.29 490.714C1027.29 502.468 1026.66 510.786 1025.4 515.668C1024.67 518.483 1023.54 520.826 1022.03 522.698C1021.73 523.073 1021.39 523.469 1021 523.889C1019.93 525.012 1019.02 525.686 1018.26 525.91C1018.14 525.94 1018.03 525.955 1017.94 525.955C1017.69 525.955 1017.56 525.828 1017.56 525.573C1017.56 525.199 1017.97 524.465 1018.8 523.372C1019.2 522.818 1019.46 522.444 1019.56 522.249C1021.45 518.236 1022.39 508.533 1022.39 493.14C1022.39 491.328 1022.34 490.19 1022.23 489.726C1022.08 489.112 1021.78 488.692 1021.33 488.468C1021.16 488.378 1020.97 488.333 1020.77 488.333C1019.96 488.333 1019.24 488.603 1018.59 489.142C1018.09 489.576 1017.71 489.83 1017.47 489.905C1017.31 489.965 1017.13 489.995 1016.93 489.995C1016.68 489.995 1016.55 489.853 1016.55 489.568Z" fill="url(#paint8_linear_101_550)"/>
<path d="M1020.48 478.315C1020.17 478.211 1019.98 478.008 1019.92 477.709C1019.92 477.514 1020.05 477.192 1020.32 476.743L1023.36 471.555C1025.65 467.871 1027.75 465.408 1029.67 464.165C1030.82 463.416 1031.97 463.042 1033.13 463.042C1034.7 463.042 1035.84 463.596 1036.56 464.704C1036.97 465.318 1037.17 466.029 1037.17 466.838C1037.17 468.605 1036.38 470.229 1034.79 471.712C1033.88 472.565 1033.07 473.075 1032.36 473.239C1032.29 473.254 1032.21 473.262 1032.14 473.262C1031.85 473.262 1031.7 473.127 1031.69 472.857C1031.69 472.573 1031.88 472.199 1032.27 471.734C1032.81 471.09 1033.12 470.454 1033.19 469.825C1033.21 469.705 1033.22 469.578 1033.22 469.443C1033.22 468.455 1032.92 467.744 1032.32 467.31C1032.06 467.115 1031.79 467.018 1031.49 467.018C1030.3 467.018 1028.57 468.463 1026.28 471.353L1022.03 476.945C1021.66 477.395 1021.33 477.754 1021.07 478.023C1020.89 478.218 1020.69 478.315 1020.48 478.315Z" fill="url(#paint9_linear_101_550)"/>
<path d="M1045.32 487.3C1043.87 487.165 1042.37 487.09 1040.83 487.075C1037.69 487.075 1035.46 487.547 1034.16 488.49L1033.22 489.187C1032.98 489.321 1032.72 489.389 1032.45 489.389C1032.18 489.389 1032.05 489.246 1032.05 488.962C1032.06 488.363 1032.61 487.502 1033.69 486.379C1033.88 486.184 1034.09 485.99 1034.29 485.795C1036.26 483.998 1038.46 482.89 1040.9 482.471C1041.99 482.276 1043.3 482.179 1044.83 482.179C1047.05 482.179 1050.52 482.471 1055.25 483.055C1059.86 483.624 1063.26 483.908 1065.45 483.908C1068.53 483.908 1070.71 483.437 1071.98 482.493L1072.91 481.774C1073.13 481.64 1073.38 481.572 1073.67 481.572C1073.94 481.572 1074.07 481.7 1074.07 481.954C1074.07 482.628 1073.46 483.579 1072.23 484.807C1071.53 485.51 1070.78 486.124 1069.99 486.648C1068.13 487.891 1065.8 488.595 1063 488.76C1062.46 488.79 1061.88 488.805 1061.25 488.805C1059.27 488.805 1056.02 488.543 1051.5 488.019L1048.02 487.592L1047.61 487.929C1044.31 490.879 1042.03 493.611 1040.79 496.127C1039.84 498.044 1039.37 499.983 1039.37 501.944C1039.37 505.673 1040.6 508.84 1043.05 511.445C1045.2 513.736 1047.89 515.204 1051.14 515.848C1052.2 516.072 1053.28 516.185 1054.38 516.185C1056.82 516.185 1059.11 515.675 1061.27 514.657C1062.3 514.163 1063.22 513.572 1064.03 512.883C1064.83 512.194 1065.61 511.206 1066.39 509.918C1067.33 508.361 1067.81 506.968 1067.81 505.74C1067.81 504.827 1067.56 504.041 1067.07 503.382C1066.66 502.873 1066.42 502.476 1066.35 502.191C1066.29 501.982 1066.26 501.742 1066.26 501.473C1066.26 499.945 1066.96 498.86 1068.37 498.216C1068.89 497.976 1069.37 497.856 1069.81 497.856C1071.08 497.856 1071.94 498.47 1072.39 499.698C1072.6 500.267 1072.7 500.949 1072.7 501.742C1072.7 504.258 1071.22 507.38 1068.26 511.108C1067.03 512.636 1065.86 513.901 1064.75 514.904C1060.18 519.022 1055.36 521.081 1050.26 521.081C1046.51 521.081 1043.2 520.018 1040.34 517.892C1037.7 515.945 1035.93 513.444 1035.04 510.39C1034.65 509.087 1034.45 507.747 1034.45 506.369C1034.45 501.413 1037.05 496.112 1042.25 490.467C1043.11 489.523 1044.06 488.565 1045.08 487.592C1045.24 487.427 1045.32 487.33 1045.32 487.3Z" fill="url(#paint10_linear_101_550)"/>
<path d="M1050.08 478.495C1049.65 478.39 1049.4 478.143 1049.34 477.754C1049.34 477.529 1049.43 477.305 1049.59 477.08C1049.88 476.721 1051.75 474.999 1055.21 471.914C1058.56 468.934 1060.76 467.092 1061.81 466.389C1062.29 466.074 1062.72 465.917 1063.11 465.917C1064.04 465.917 1064.6 466.306 1064.8 467.085C1064.83 467.205 1064.84 467.325 1064.84 467.444C1064.84 467.998 1064.51 468.59 1063.85 469.219C1063.04 469.982 1060.87 471.57 1057.32 473.98C1053.63 476.526 1051.38 477.986 1050.56 478.36C1050.35 478.45 1050.19 478.495 1050.08 478.495Z" fill="url(#paint11_linear_101_550)"/>
<path d="M1090.65 497.07C1091.37 497.07 1091.92 497.25 1092.31 497.609C1092.7 497.969 1093.03 498.193 1093.3 498.283C1093.69 498.403 1094.2 498.463 1094.83 498.463C1095.61 498.463 1096.41 498.291 1097.23 497.946C1097.72 496.958 1097.97 495.91 1097.97 494.802C1097.97 492.69 1097.22 490.961 1095.7 489.613C1094.76 488.76 1093.7 488.228 1092.51 488.019C1092.2 487.959 1091.87 487.929 1091.53 487.929C1089.88 487.929 1088.21 488.475 1086.52 489.568C1085.78 490.033 1085.27 490.467 1084.97 490.871C1084.28 491.799 1083.82 492.982 1083.6 494.42C1083.36 495.887 1083.17 496.846 1083.04 497.295C1082.57 498.747 1081.64 500.177 1080.23 501.585C1079.19 502.618 1078.34 503.202 1077.67 503.337C1077.59 503.352 1077.52 503.359 1077.46 503.359C1077.21 503.359 1077.08 503.232 1077.08 502.978C1077.08 502.543 1077.23 502.154 1077.53 501.81C1077.97 501.315 1078.26 500.739 1078.41 500.08C1078.5 499.661 1078.57 499.159 1078.61 498.575C1078.64 498.126 1078.66 495.341 1078.66 490.22C1078.67 486.596 1078.74 483.661 1078.86 481.415C1079.08 477.028 1079.55 473.688 1080.25 471.397C1081.1 468.627 1082.58 466.201 1084.67 464.12C1085.83 462.967 1086.73 462.391 1087.37 462.391C1087.64 462.391 1087.77 462.525 1087.77 462.795C1087.77 463.304 1087.28 464.135 1086.29 465.288C1086.11 465.483 1086.01 465.61 1085.98 465.67C1084.41 468.38 1083.62 474.482 1083.62 483.976C1083.6 485.069 1083.6 486.476 1083.6 488.198L1083.57 489.434L1084.05 488.984C1086.07 487.008 1088.21 485.473 1090.47 484.38C1092.33 483.481 1094.06 483.032 1095.66 483.032C1097.69 483.032 1099.41 483.773 1100.8 485.256C1102.18 486.738 1102.87 488.565 1102.87 490.736C1102.87 493.671 1101.45 496.554 1098.62 499.384C1095.97 502.034 1093.32 503.359 1090.67 503.359C1088.29 503.359 1087.1 502.431 1087.1 500.574C1087.1 499.661 1087.46 498.837 1088.18 498.104C1088.87 497.415 1089.69 497.07 1090.65 497.07Z" fill="url(#paint12_linear_101_550)"/>
<path d="M1092.33 467.736C1092.05 467.736 1091.9 467.594 1091.88 467.31C1091.88 466.905 1092.25 466.299 1092.99 465.49C1094.26 464.083 1095.68 463.237 1097.25 462.952C1097.58 462.892 1097.91 462.862 1098.24 462.862C1099.66 462.862 1100.75 463.401 1101.5 464.479C1101.96 465.138 1102.19 465.895 1102.19 466.748C1102.19 469.488 1100.23 471.974 1096.31 474.205C1095.74 474.52 1095.14 474.826 1094.51 475.126C1093.63 475.56 1092.13 476.212 1090.02 477.08L1088.07 477.911C1087.56 478.136 1087.23 478.248 1087.08 478.248C1086.69 478.248 1086.48 478.068 1086.45 477.709C1086.45 477.305 1087.28 476.631 1088.94 475.688L1093.28 473.194C1096.14 471.472 1097.69 470.005 1097.93 468.792C1097.96 468.657 1097.97 468.53 1097.97 468.41C1097.97 468.021 1097.77 467.624 1097.37 467.22C1096.87 466.726 1096.19 466.479 1095.32 466.479C1094.77 466.479 1094.21 466.696 1093.64 467.13C1093.16 467.519 1092.72 467.721 1092.33 467.736Z" fill="url(#paint13_linear_101_550)"/>
<path d="M1104.87 489.995C1104.61 489.995 1104.49 489.853 1104.49 489.568C1104.49 488.969 1105.05 488.078 1106.19 486.896C1107.35 485.698 1108.56 484.792 1109.83 484.178C1110.89 483.684 1111.88 483.437 1112.8 483.437C1114.07 483.437 1114.85 484.238 1115.15 485.84C1115.2 486.064 1115.22 486.656 1115.22 487.614L1115.24 489.074L1115.76 488.558C1118.13 486.252 1120.45 484.642 1122.72 483.729C1123.68 483.309 1124.73 483.085 1125.87 483.055C1125.96 483.055 1126.04 483.055 1126.12 483.055C1128.24 483.055 1129.97 484.11 1131.3 486.222C1131.89 487.165 1132.23 487.996 1132.34 488.715C1132.4 488.715 1132.58 488.543 1132.88 488.198C1133.64 487.36 1134.71 486.469 1136.09 485.525C1138.45 483.878 1140.6 483.055 1142.51 483.055C1144.59 483.055 1146.27 484.028 1147.54 485.975C1147.72 486.244 1147.88 486.514 1148.01 486.783C1148.6 487.936 1148.89 489.194 1148.89 490.557C1148.89 493.117 1147.87 495.64 1145.84 498.126C1145.19 498.92 1144.45 499.683 1143.61 500.417C1141.29 502.334 1139.15 503.314 1137.19 503.359C1134.84 503.359 1133.66 502.446 1133.66 500.619C1133.66 499.376 1134.19 498.403 1135.26 497.699C1135.89 497.28 1136.54 497.07 1137.21 497.07C1137.81 497.07 1138.37 497.265 1138.9 497.654C1139.46 498.074 1140 498.321 1140.49 498.396C1140.76 498.44 1141.05 498.463 1141.37 498.463C1142.32 498.463 1142.92 498.306 1143.16 497.991C1143.22 497.931 1143.29 497.812 1143.37 497.632C1143.78 496.718 1143.99 495.738 1143.99 494.689C1143.99 492.863 1143.43 491.283 1142.31 489.95C1142 489.576 1141.66 489.254 1141.3 488.984C1140.4 488.296 1139.43 487.951 1138.38 487.951C1137.17 487.951 1136.06 488.296 1135.05 488.984C1134.61 489.284 1134.25 489.628 1134 490.018C1133.5 490.766 1132.88 492.002 1132.13 493.724C1131.55 495.071 1131 496.134 1130.47 496.913C1129.42 498.5 1128.14 499.893 1126.61 501.091C1125.02 502.334 1123.44 503.082 1121.87 503.337C1121.75 503.352 1121.54 503.359 1121.24 503.359C1118.77 503.285 1117.51 502.379 1117.45 500.642C1117.45 499.938 1117.69 499.234 1118.19 498.53C1118.88 497.557 1119.85 497.07 1121.11 497.07C1121.63 497.07 1122.15 497.257 1122.68 497.632C1123.28 498.081 1123.87 498.343 1124.45 498.418C1124.68 498.448 1124.92 498.463 1125.19 498.463C1126.12 498.463 1126.68 498.328 1126.88 498.059C1126.94 497.984 1127.01 497.864 1127.08 497.699C1127.46 496.801 1127.64 495.82 1127.64 494.757C1127.64 493.17 1127.17 491.702 1126.23 490.354C1125.09 488.737 1123.64 487.929 1121.89 487.929C1120.5 487.929 1119.1 488.453 1117.69 489.501C1117.44 489.681 1117.22 489.86 1117.04 490.04C1116.02 491.058 1115.43 492.541 1115.27 494.487C1115.24 494.892 1115.21 495.865 1115.18 497.407C1115 505.628 1114.32 511.962 1113.13 516.409C1112.94 517.143 1112.73 517.794 1112.5 518.363C1111.67 520.564 1110.38 522.511 1108.64 524.203C1107.46 525.356 1106.54 525.94 1105.88 525.955C1105.62 525.955 1105.5 525.828 1105.5 525.573C1105.5 525.169 1105.68 524.742 1106.04 524.293C1106.68 523.544 1107.16 522.84 1107.47 522.182C1108.06 520.954 1108.54 519.284 1108.91 517.173C1109.57 513.399 1109.98 509.289 1110.15 504.842C1110.28 501.622 1110.35 497.505 1110.35 492.488C1110.35 490.407 1110.09 489.127 1109.56 488.647C1109.34 488.438 1109.05 488.333 1108.71 488.333C1107.9 488.333 1107.17 488.603 1106.53 489.142C1106.02 489.576 1105.65 489.83 1105.41 489.905C1105.24 489.965 1105.06 489.995 1104.87 489.995Z" fill="url(#paint14_linear_101_550)"/>
<path d="M1122.43 478.293C1122.06 478.293 1121.87 478.106 1121.87 477.731C1121.87 477.537 1121.96 477.312 1122.14 477.058L1125.91 472.184C1127.49 470.177 1128.73 468.71 1129.64 467.781C1132.53 464.801 1135.14 463.312 1137.48 463.312C1138.95 463.312 1140.06 463.828 1140.8 464.861C1141.24 465.475 1141.46 466.172 1141.46 466.95C1141.46 468.313 1140.86 469.698 1139.66 471.105C1138.61 472.348 1137.53 473.097 1136.42 473.352C1136.25 473.396 1136.08 473.419 1135.93 473.419C1135.56 473.419 1135.37 473.284 1135.37 473.015C1135.37 472.82 1135.59 472.468 1136.02 471.959C1136.75 471.061 1137.14 470.2 1137.19 469.376C1137.19 469.286 1137.19 469.204 1137.19 469.129C1137.19 468.23 1136.91 467.617 1136.36 467.287C1136.15 467.152 1135.89 467.085 1135.59 467.085C1134.79 467.085 1133.67 467.714 1132.25 468.972C1131.32 469.78 1129.73 471.338 1127.49 473.644L1124.27 476.878C1123.38 477.746 1122.84 478.211 1122.68 478.271C1122.62 478.285 1122.54 478.293 1122.43 478.293Z" fill="url(#paint15_linear_101_550)"/>
<path d="M71.2841 546.091V565H69.0682L58.7642 550.153H58.5795V565H56.2898V546.091H58.5057L68.8466 560.974H69.0312V546.091H71.2841ZM81.3319 565.295C80.0516 565.295 78.9282 564.991 77.9618 564.381C77.0016 563.772 76.2507 562.92 75.709 561.824C75.1735 560.728 74.9057 559.448 74.9057 557.983C74.9057 556.506 75.1735 555.216 75.709 554.114C76.2507 553.013 77.0016 552.157 77.9618 551.548C78.9282 550.938 80.0516 550.634 81.3319 550.634C82.6122 550.634 83.7324 550.938 84.6926 551.548C85.659 552.157 86.41 553.013 86.9455 554.114C87.4872 555.216 87.758 556.506 87.758 557.983C87.758 559.448 87.4872 560.728 86.9455 561.824C86.41 562.92 85.659 563.772 84.6926 564.381C83.7324 564.991 82.6122 565.295 81.3319 565.295ZM81.3319 563.338C82.3044 563.338 83.1046 563.089 83.7324 562.59C84.3603 562.092 84.825 561.436 85.1266 560.624C85.4282 559.811 85.579 558.931 85.579 557.983C85.579 557.035 85.4282 556.152 85.1266 555.333C84.825 554.514 84.3603 553.853 83.7324 553.348C83.1046 552.843 82.3044 552.591 81.3319 552.591C80.3593 552.591 79.5591 552.843 78.9313 553.348C78.3034 553.853 77.8387 554.514 77.5371 555.333C77.2355 556.152 77.0847 557.035 77.0847 557.983C77.0847 558.931 77.2355 559.811 77.5371 560.624C77.8387 561.436 78.3034 562.092 78.9313 562.59C79.5591 563.089 80.3593 563.338 81.3319 563.338ZM80.3347 548.898L82.5875 544.614H85.1358L82.2551 548.898H80.3347ZM93.2631 546.091V565H91.0842V546.091H93.2631ZM103.2 565.295C101.834 565.295 100.655 564.994 99.6639 564.391C98.679 563.781 97.9189 562.932 97.3833 561.842C96.854 560.747 96.5893 559.473 96.5893 558.02C96.5893 556.567 96.854 555.287 97.3833 554.179C97.9189 553.065 98.6636 552.197 99.6177 551.575C100.578 550.947 101.698 550.634 102.979 550.634C103.717 550.634 104.447 550.757 105.167 551.003C105.887 551.249 106.542 551.649 107.133 552.203C107.724 552.751 108.195 553.477 108.546 554.382C108.897 555.287 109.072 556.401 109.072 557.724V558.648H98.1404V556.764H106.856C106.856 555.964 106.696 555.25 106.376 554.622C106.062 553.994 105.613 553.499 105.028 553.136C104.45 552.772 103.766 552.591 102.979 552.591C102.111 552.591 101.36 552.806 100.726 553.237C100.098 553.662 99.6146 554.216 99.2761 554.899C98.9376 555.582 98.7683 556.315 98.7683 557.097V558.352C98.7683 559.423 98.9529 560.331 99.3223 561.076C99.6977 561.815 100.218 562.378 100.883 562.766C101.547 563.147 102.32 563.338 103.2 563.338C103.773 563.338 104.29 563.258 104.751 563.098C105.219 562.932 105.622 562.686 105.961 562.359C106.299 562.027 106.561 561.615 106.746 561.122L108.851 561.713C108.629 562.427 108.257 563.055 107.733 563.597C107.21 564.132 106.564 564.551 105.795 564.852C105.025 565.148 104.16 565.295 103.2 565.295ZM100.209 548.455C99.8208 548.455 99.4761 548.307 99.1745 548.011C98.8791 547.71 98.7314 547.365 98.7314 546.977C98.7314 546.553 98.8791 546.202 99.1745 545.925C99.4761 545.642 99.8208 545.5 100.209 545.5C100.633 545.5 100.984 545.642 101.261 545.925C101.544 546.202 101.686 546.553 101.686 546.977C101.686 547.365 101.544 547.71 101.261 548.011C100.984 548.307 100.633 548.455 100.209 548.455ZM105.527 548.455C105.139 548.455 104.794 548.307 104.493 548.011C104.197 547.71 104.05 547.365 104.05 546.977C104.05 546.553 104.197 546.202 104.493 545.925C104.794 545.642 105.139 545.5 105.527 545.5C105.952 545.5 106.302 545.642 106.579 545.925C106.863 546.202 107.004 546.553 107.004 546.977C107.004 547.365 106.863 547.71 106.579 548.011C106.302 548.307 105.952 548.455 105.527 548.455ZM112.682 565V546.091H114.861V553.071H115.046C115.206 552.825 115.428 552.511 115.711 552.129C116 551.741 116.412 551.397 116.948 551.095C117.49 550.787 118.222 550.634 119.145 550.634C120.34 550.634 121.392 550.932 122.303 551.529C123.214 552.126 123.925 552.973 124.436 554.068C124.947 555.164 125.202 556.456 125.202 557.946C125.202 559.448 124.947 560.75 124.436 561.852C123.925 562.947 123.217 563.797 122.312 564.4C121.407 564.997 120.364 565.295 119.182 565.295C118.271 565.295 117.542 565.145 116.994 564.843C116.446 564.535 116.025 564.187 115.729 563.8C115.434 563.406 115.206 563.08 115.046 562.821H114.787V565H112.682ZM114.824 557.909C114.824 558.98 114.981 559.925 115.295 560.744C115.609 561.556 116.068 562.193 116.671 562.655C117.274 563.11 118.013 563.338 118.887 563.338C119.798 563.338 120.558 563.098 121.167 562.618C121.783 562.132 122.245 561.479 122.552 560.661C122.866 559.836 123.023 558.919 123.023 557.909C123.023 556.912 122.869 556.013 122.562 555.213C122.26 554.407 121.801 553.77 121.186 553.302C120.577 552.828 119.81 552.591 118.887 552.591C118.001 552.591 117.256 552.816 116.653 553.265C116.049 553.708 115.594 554.33 115.286 555.13C114.978 555.924 114.824 556.85 114.824 557.909ZM132.709 565.332C131.81 565.332 130.994 565.163 130.262 564.825C129.529 564.48 128.948 563.984 128.517 563.338C128.086 562.686 127.871 561.898 127.871 560.974C127.871 560.162 128.031 559.503 128.351 558.999C128.671 558.488 129.099 558.088 129.634 557.798C130.17 557.509 130.76 557.294 131.407 557.152C132.059 557.004 132.715 556.887 133.373 556.801C134.235 556.69 134.934 556.607 135.469 556.552C136.011 556.49 136.405 556.389 136.651 556.247C136.903 556.106 137.03 555.859 137.03 555.509V555.435C137.03 554.524 136.78 553.816 136.282 553.311C135.789 552.806 135.041 552.554 134.038 552.554C132.998 552.554 132.182 552.782 131.591 553.237C131.001 553.693 130.585 554.179 130.345 554.696L128.277 553.957C128.646 553.096 129.139 552.425 129.754 551.945C130.376 551.458 131.053 551.12 131.785 550.929C132.524 550.732 133.25 550.634 133.964 550.634C134.42 550.634 134.943 550.689 135.534 550.8C136.131 550.904 136.706 551.123 137.26 551.455C137.821 551.788 138.285 552.289 138.655 552.96C139.024 553.631 139.209 554.53 139.209 555.656V565H137.03V563.08H136.919C136.771 563.387 136.525 563.717 136.18 564.067C135.836 564.418 135.377 564.717 134.805 564.963C134.232 565.209 133.533 565.332 132.709 565.332ZM133.041 563.375C133.903 563.375 134.629 563.206 135.22 562.867C135.817 562.529 136.266 562.092 136.568 561.556C136.876 561.021 137.03 560.457 137.03 559.866V557.872C136.937 557.983 136.734 558.085 136.42 558.177C136.113 558.263 135.756 558.34 135.349 558.408C134.949 558.469 134.558 558.525 134.177 558.574C133.801 558.617 133.497 558.654 133.263 558.685C132.696 558.759 132.167 558.879 131.675 559.045C131.188 559.205 130.794 559.448 130.493 559.774C130.197 560.094 130.05 560.531 130.05 561.085C130.05 561.842 130.33 562.415 130.89 562.803C131.456 563.184 132.173 563.375 133.041 563.375ZM153.231 553.994L151.274 554.548C151.151 554.222 150.969 553.905 150.729 553.597C150.495 553.283 150.175 553.025 149.769 552.822C149.363 552.619 148.842 552.517 148.208 552.517C147.341 552.517 146.617 552.717 146.039 553.117C145.466 553.511 145.18 554.013 145.18 554.622C145.18 555.164 145.377 555.592 145.771 555.906C146.165 556.219 146.78 556.481 147.618 556.69L149.723 557.207C150.991 557.515 151.935 557.986 152.557 558.62C153.179 559.248 153.49 560.057 153.49 561.048C153.49 561.861 153.256 562.587 152.788 563.227C152.326 563.867 151.68 564.372 150.849 564.741C150.018 565.111 149.052 565.295 147.95 565.295C146.503 565.295 145.306 564.982 144.358 564.354C143.41 563.726 142.81 562.809 142.558 561.602L144.626 561.085C144.823 561.848 145.195 562.421 145.743 562.803C146.297 563.184 147.02 563.375 147.913 563.375C148.929 563.375 149.735 563.16 150.332 562.729C150.935 562.292 151.237 561.768 151.237 561.159C151.237 560.667 151.065 560.254 150.72 559.922C150.375 559.583 149.846 559.331 149.132 559.165L146.768 558.611C145.469 558.303 144.515 557.826 143.906 557.18C143.303 556.527 143.001 555.712 143.001 554.733C143.001 553.933 143.226 553.225 143.675 552.609C144.131 551.994 144.749 551.511 145.531 551.16C146.319 550.809 147.211 550.634 148.208 550.634C149.612 550.634 150.714 550.941 151.514 551.557C152.32 552.172 152.893 552.985 153.231 553.994ZM162.716 565.295C161.349 565.295 160.171 564.994 159.18 564.391C158.195 563.781 157.434 562.932 156.899 561.842C156.37 560.747 156.105 559.473 156.105 558.02C156.105 556.567 156.37 555.287 156.899 554.179C157.434 553.065 158.179 552.197 159.133 551.575C160.094 550.947 161.214 550.634 162.494 550.634C163.233 550.634 163.962 550.757 164.682 551.003C165.403 551.249 166.058 551.649 166.649 552.203C167.24 552.751 167.711 553.477 168.062 554.382C168.412 555.287 168.588 556.401 168.588 557.724V558.648H157.656V556.764H166.372C166.372 555.964 166.212 555.25 165.892 554.622C165.578 553.994 165.129 553.499 164.544 553.136C163.965 552.772 163.282 552.591 162.494 552.591C161.626 552.591 160.875 552.806 160.241 553.237C159.613 553.662 159.13 554.216 158.792 554.899C158.453 555.582 158.284 556.315 158.284 557.097V558.352C158.284 559.423 158.469 560.331 158.838 561.076C159.213 561.815 159.733 562.378 160.398 562.766C161.063 563.147 161.836 563.338 162.716 563.338C163.288 563.338 163.805 563.258 164.267 563.098C164.735 562.932 165.138 562.686 165.476 562.359C165.815 562.027 166.077 561.615 166.261 561.122L168.366 561.713C168.145 562.427 167.772 563.055 167.249 563.597C166.726 564.132 166.08 564.551 165.31 564.852C164.541 565.148 163.676 565.295 162.716 565.295Z" fill="#35495E" fill-opacity="0.5"/>
<rect y="610" width="1200" height="20" fill="#8D6FC7"/>
<rect y="610" width="1200" height="20" fill="url(#paint16_linear_101_550)"/>
<rect x="54" y="170" width="201" height="55" rx="12" fill="#F1F1F1"/>
<path d="M65.2756 199.227V197.818C66.5407 197.818 67.4233 197.553 67.9233 197.023C68.4309 196.492 68.6847 195.606 68.6847 194.364V190.727C68.6847 189.682 68.7831 188.777 68.9801 188.011C69.1847 187.246 69.5142 186.614 69.9688 186.114C70.4233 185.614 71.0294 185.242 71.7869 185C72.5445 184.758 73.4801 184.636 74.5938 184.636V186.864C73.715 186.864 73.0218 187 72.5142 187.273C72.0142 187.545 71.6581 187.97 71.446 188.545C71.2415 189.114 71.1392 189.841 71.1392 190.727V195.273C71.1392 195.864 71.0597 196.402 70.9006 196.886C70.7491 197.371 70.465 197.788 70.0483 198.136C69.6316 198.485 69.0369 198.754 68.2642 198.943C67.4991 199.133 66.5028 199.227 65.2756 199.227ZM74.5938 213.727C73.4801 213.727 72.5445 213.606 71.7869 213.364C71.0294 213.121 70.4233 212.75 69.9688 212.25C69.5142 211.75 69.1847 211.117 68.9801 210.352C68.7831 209.587 68.6847 208.682 68.6847 207.636V204C68.6847 202.758 68.4309 201.871 67.9233 201.341C67.4233 200.811 66.5407 200.545 65.2756 200.545V199.136C66.5028 199.136 67.4991 199.231 68.2642 199.42C69.0369 199.61 69.6316 199.879 70.0483 200.227C70.465 200.576 70.7491 200.992 70.9006 201.477C71.0597 201.962 71.1392 202.5 71.1392 203.091V207.636C71.1392 208.523 71.2415 209.25 71.446 209.818C71.6581 210.386 72.0142 210.807 72.5142 211.08C73.0218 211.36 73.715 211.5 74.5938 211.5V213.727ZM65.2756 200.545V197.818H67.9574V200.545H65.2756ZM76.8693 199.227V197.818C78.1345 197.818 79.017 197.553 79.517 197.023C80.0246 196.492 80.2784 195.606 80.2784 194.364V190.727C80.2784 189.682 80.3769 188.777 80.5739 188.011C80.7784 187.246 81.108 186.614 81.5625 186.114C82.017 185.614 82.6231 185.242 83.3807 185C84.1383 184.758 85.0739 184.636 86.1875 184.636V186.864C85.3087 186.864 84.6155 187 84.108 187.273C83.608 187.545 83.2519 187.97 83.0398 188.545C82.8352 189.114 82.733 189.841 82.733 190.727V195.273C82.733 195.864 82.6534 196.402 82.4943 196.886C82.3428 197.371 82.0587 197.788 81.642 198.136C81.2254 198.485 80.6307 198.754 79.858 198.943C79.0928 199.133 78.0966 199.227 76.8693 199.227ZM86.1875 213.727C85.0739 213.727 84.1383 213.606 83.3807 213.364C82.6231 213.121 82.017 212.75 81.5625 212.25C81.108 211.75 80.7784 211.117 80.5739 210.352C80.3769 209.587 80.2784 208.682 80.2784 207.636V204C80.2784 202.758 80.0246 201.871 79.517 201.341C79.017 200.811 78.1345 200.545 76.8693 200.545V199.136C78.0966 199.136 79.0928 199.231 79.858 199.42C80.6307 199.61 81.2254 199.879 81.642 200.227C82.0587 200.576 82.3428 200.992 82.4943 201.477C82.6534 201.962 82.733 202.5 82.733 203.091V207.636C82.733 208.523 82.8352 209.25 83.0398 209.818C83.2519 210.386 83.608 210.807 84.108 211.08C84.6155 211.36 85.3087 211.5 86.1875 211.5V213.727ZM76.8693 200.545V197.818H79.5511V200.545H76.8693ZM96.4517 209.364C94.8153 209.364 93.4063 208.977 92.2244 208.205C91.0426 207.432 90.1335 206.367 89.4972 205.011C88.8608 203.655 88.5426 202.106 88.5426 200.364C88.5426 198.591 88.8684 197.027 89.5199 195.67C90.179 194.307 91.0956 193.242 92.2699 192.477C93.4517 191.705 94.8305 191.318 96.4062 191.318C97.6335 191.318 98.7396 191.545 99.7244 192C100.709 192.455 101.516 193.091 102.145 193.909C102.774 194.727 103.164 195.682 103.315 196.773H100.634C100.429 195.977 99.9744 195.273 99.2699 194.659C98.5729 194.038 97.6335 193.727 96.4517 193.727C95.4063 193.727 94.4896 194 93.7017 194.545C92.9214 195.083 92.3116 195.845 91.8722 196.83C91.4403 197.807 91.2244 198.955 91.2244 200.273C91.2244 201.621 91.4366 202.795 91.8608 203.795C92.2926 204.795 92.8987 205.572 93.679 206.125C94.4669 206.678 95.3911 206.955 96.4517 206.955C97.1487 206.955 97.7812 206.833 98.3494 206.591C98.9176 206.348 99.3987 206 99.7926 205.545C100.187 205.091 100.467 204.545 100.634 203.909H103.315C103.164 204.939 102.789 205.867 102.19 206.693C101.599 207.511 100.815 208.163 99.8381 208.648C98.8684 209.125 97.7396 209.364 96.4517 209.364ZM112.372 209.409C111.266 209.409 110.262 209.201 109.361 208.784C108.459 208.36 107.743 207.75 107.213 206.955C106.683 206.152 106.418 205.182 106.418 204.045C106.418 203.045 106.615 202.235 107.009 201.614C107.402 200.985 107.929 200.492 108.588 200.136C109.247 199.78 109.974 199.515 110.77 199.341C111.573 199.159 112.38 199.015 113.19 198.909C114.251 198.773 115.111 198.67 115.77 198.602C116.437 198.527 116.921 198.402 117.224 198.227C117.535 198.053 117.69 197.75 117.69 197.318V197.227C117.69 196.106 117.384 195.235 116.77 194.614C116.164 193.992 115.243 193.682 114.009 193.682C112.728 193.682 111.724 193.962 110.997 194.523C110.27 195.083 109.759 195.682 109.463 196.318L106.918 195.409C107.372 194.348 107.978 193.523 108.736 192.932C109.501 192.333 110.334 191.917 111.236 191.682C112.145 191.439 113.039 191.318 113.918 191.318C114.478 191.318 115.122 191.386 115.849 191.523C116.584 191.652 117.293 191.92 117.974 192.33C118.664 192.739 119.236 193.356 119.69 194.182C120.145 195.008 120.372 196.114 120.372 197.5V209H117.69V206.636H117.554C117.372 207.015 117.069 207.42 116.645 207.852C116.221 208.284 115.656 208.652 114.952 208.955C114.247 209.258 113.387 209.409 112.372 209.409ZM112.781 207C113.842 207 114.736 206.792 115.463 206.375C116.198 205.958 116.751 205.42 117.122 204.761C117.501 204.102 117.69 203.409 117.69 202.682V200.227C117.577 200.364 117.327 200.489 116.94 200.602C116.562 200.708 116.122 200.803 115.622 200.886C115.13 200.962 114.649 201.03 114.179 201.091C113.717 201.144 113.342 201.189 113.054 201.227C112.357 201.318 111.705 201.466 111.099 201.67C110.501 201.867 110.016 202.167 109.645 202.568C109.281 202.962 109.099 203.5 109.099 204.182C109.099 205.114 109.444 205.818 110.134 206.295C110.83 206.765 111.713 207 112.781 207ZM132.858 191.545V193.818H123.812V191.545H132.858ZM126.449 187.364H129.131V204C129.131 204.758 129.241 205.326 129.46 205.705C129.688 206.076 129.975 206.326 130.324 206.455C130.68 206.576 131.055 206.636 131.449 206.636C131.744 206.636 131.987 206.621 132.176 206.591C132.366 206.553 132.517 206.523 132.631 206.5L133.176 208.909C132.994 208.977 132.741 209.045 132.415 209.114C132.089 209.189 131.676 209.227 131.176 209.227C130.419 209.227 129.676 209.064 128.949 208.739C128.229 208.413 127.631 207.917 127.153 207.25C126.684 206.583 126.449 205.742 126.449 204.727V187.364ZM144.023 209.364C142.341 209.364 140.89 208.992 139.67 208.25C138.458 207.5 137.523 206.455 136.864 205.114C136.212 203.765 135.886 202.197 135.886 200.409C135.886 198.621 136.212 197.045 136.864 195.682C137.523 194.311 138.439 193.242 139.614 192.477C140.795 191.705 142.174 191.318 143.75 191.318C144.659 191.318 145.557 191.47 146.443 191.773C147.33 192.076 148.136 192.568 148.864 193.25C149.591 193.924 150.17 194.818 150.602 195.932C151.034 197.045 151.25 198.417 151.25 200.045V201.182H137.795V198.864H148.523C148.523 197.879 148.326 197 147.932 196.227C147.545 195.455 146.992 194.845 146.273 194.398C145.561 193.951 144.72 193.727 143.75 193.727C142.682 193.727 141.758 193.992 140.977 194.523C140.205 195.045 139.61 195.727 139.193 196.568C138.777 197.409 138.568 198.311 138.568 199.273V200.818C138.568 202.136 138.795 203.254 139.25 204.17C139.712 205.08 140.352 205.773 141.17 206.25C141.989 206.72 142.939 206.955 144.023 206.955C144.727 206.955 145.364 206.856 145.932 206.659C146.508 206.455 147.004 206.152 147.42 205.75C147.837 205.341 148.159 204.833 148.386 204.227L150.977 204.955C150.705 205.833 150.246 206.606 149.602 207.273C148.958 207.932 148.163 208.447 147.216 208.818C146.269 209.182 145.205 209.364 144.023 209.364ZM162.375 215.909C161.08 215.909 159.966 215.742 159.034 215.409C158.102 215.083 157.326 214.652 156.705 214.114C156.091 213.583 155.602 213.015 155.239 212.409L157.375 210.909C157.617 211.227 157.924 211.591 158.295 212C158.667 212.417 159.174 212.777 159.818 213.08C160.47 213.39 161.322 213.545 162.375 213.545C163.784 213.545 164.947 213.205 165.864 212.523C166.78 211.841 167.239 210.773 167.239 209.318V205.773H167.011C166.814 206.091 166.534 206.485 166.17 206.955C165.814 207.417 165.299 207.83 164.625 208.193C163.958 208.549 163.057 208.727 161.92 208.727C160.511 208.727 159.246 208.394 158.125 207.727C157.011 207.061 156.129 206.091 155.477 204.818C154.833 203.545 154.511 202 154.511 200.182C154.511 198.394 154.826 196.837 155.455 195.511C156.083 194.178 156.958 193.148 158.08 192.42C159.201 191.686 160.496 191.318 161.966 191.318C163.102 191.318 164.004 191.508 164.67 191.886C165.345 192.258 165.86 192.682 166.216 193.159C166.58 193.629 166.86 194.015 167.057 194.318H167.33V191.545H169.92V209.5C169.92 211 169.58 212.22 168.898 213.159C168.223 214.106 167.314 214.799 166.17 215.239C165.034 215.686 163.769 215.909 162.375 215.909ZM162.284 206.318C163.36 206.318 164.269 206.072 165.011 205.58C165.754 205.087 166.318 204.379 166.705 203.455C167.091 202.53 167.284 201.424 167.284 200.136C167.284 198.879 167.095 197.769 166.716 196.807C166.337 195.845 165.777 195.091 165.034 194.545C164.292 194 163.375 193.727 162.284 193.727C161.148 193.727 160.201 194.015 159.443 194.591C158.693 195.167 158.129 195.939 157.75 196.909C157.379 197.879 157.193 198.955 157.193 200.136C157.193 201.348 157.383 202.42 157.761 203.352C158.148 204.277 158.716 205.004 159.466 205.534C160.223 206.057 161.163 206.318 162.284 206.318ZM181.92 209.364C180.345 209.364 178.962 208.989 177.773 208.239C176.591 207.489 175.667 206.439 175 205.091C174.341 203.742 174.011 202.167 174.011 200.364C174.011 198.545 174.341 196.958 175 195.602C175.667 194.246 176.591 193.193 177.773 192.443C178.962 191.693 180.345 191.318 181.92 191.318C183.496 191.318 184.875 191.693 186.057 192.443C187.246 193.193 188.17 194.246 188.83 195.602C189.496 196.958 189.83 198.545 189.83 200.364C189.83 202.167 189.496 203.742 188.83 205.091C188.17 206.439 187.246 207.489 186.057 208.239C184.875 208.989 183.496 209.364 181.92 209.364ZM181.92 206.955C183.117 206.955 184.102 206.648 184.875 206.034C185.648 205.42 186.22 204.614 186.591 203.614C186.962 202.614 187.148 201.53 187.148 200.364C187.148 199.197 186.962 198.11 186.591 197.102C186.22 196.095 185.648 195.28 184.875 194.659C184.102 194.038 183.117 193.727 181.92 193.727C180.723 193.727 179.739 194.038 178.966 194.659C178.193 195.28 177.621 196.095 177.25 197.102C176.879 198.11 176.693 199.197 176.693 200.364C176.693 201.53 176.879 202.614 177.25 203.614C177.621 204.614 178.193 205.42 178.966 206.034C179.739 206.648 180.723 206.955 181.92 206.955ZM193.923 209V191.545H196.514V194.182H196.696C197.014 193.318 197.59 192.617 198.423 192.08C199.257 191.542 200.196 191.273 201.241 191.273C201.438 191.273 201.685 191.277 201.98 191.284C202.276 191.292 202.499 191.303 202.651 191.318V194.045C202.56 194.023 202.351 193.989 202.026 193.943C201.707 193.89 201.37 193.864 201.014 193.864C200.166 193.864 199.408 194.042 198.741 194.398C198.082 194.746 197.56 195.231 197.173 195.852C196.795 196.466 196.605 197.167 196.605 197.955V209H193.923ZM208.088 215.545C207.634 215.545 207.228 215.508 206.872 215.432C206.516 215.364 206.27 215.295 206.134 215.227L206.815 212.864C207.467 213.03 208.043 213.091 208.543 213.045C209.043 213 209.486 212.777 209.872 212.375C210.266 211.981 210.626 211.341 210.952 210.455L211.452 209.091L204.997 191.545H207.906L212.724 205.455H212.906L217.724 191.545H220.634L213.224 211.545C212.891 212.447 212.478 213.193 211.986 213.784C211.493 214.383 210.921 214.826 210.27 215.114C209.626 215.402 208.899 215.545 208.088 215.545ZM232.128 199.136V200.545C230.863 200.545 229.976 200.811 229.469 201.341C228.969 201.871 228.719 202.758 228.719 204V207.636C228.719 208.682 228.616 209.587 228.412 210.352C228.215 211.117 227.889 211.75 227.435 212.25C226.98 212.75 226.374 213.121 225.616 213.364C224.859 213.606 223.923 213.727 222.81 213.727V211.5C223.688 211.5 224.378 211.36 224.878 211.08C225.385 210.807 225.741 210.386 225.946 209.818C226.158 209.25 226.264 208.523 226.264 207.636V203.091C226.264 202.5 226.34 201.962 226.491 201.477C226.651 200.992 226.938 200.576 227.355 200.227C227.772 199.879 228.363 199.61 229.128 199.42C229.901 199.231 230.901 199.136 232.128 199.136ZM222.81 184.636C223.923 184.636 224.859 184.758 225.616 185C226.374 185.242 226.98 185.614 227.435 186.114C227.889 186.614 228.215 187.246 228.412 188.011C228.616 188.777 228.719 189.682 228.719 190.727V194.364C228.719 195.606 228.969 196.492 229.469 197.023C229.976 197.553 230.863 197.818 232.128 197.818V199.227C230.901 199.227 229.901 199.133 229.128 198.943C228.363 198.754 227.772 198.485 227.355 198.136C226.938 197.788 226.651 197.371 226.491 196.886C226.34 196.402 226.264 195.864 226.264 195.273V190.727C226.264 189.841 226.158 189.114 225.946 188.545C225.741 187.97 225.385 187.545 224.878 187.273C224.378 187 223.688 186.864 222.81 186.864V184.636ZM232.128 197.818V200.545H229.446V197.818H232.128ZM243.722 199.136V200.545C242.456 200.545 241.57 200.811 241.062 201.341C240.562 201.871 240.312 202.758 240.312 204V207.636C240.312 208.682 240.21 209.587 240.006 210.352C239.809 211.117 239.483 211.75 239.028 212.25C238.574 212.75 237.968 213.121 237.21 213.364C236.453 213.606 235.517 213.727 234.403 213.727V211.5C235.282 211.5 235.972 211.36 236.472 211.08C236.979 210.807 237.335 210.386 237.54 209.818C237.752 209.25 237.858 208.523 237.858 207.636V203.091C237.858 202.5 237.934 201.962 238.085 201.477C238.244 200.992 238.532 200.576 238.949 200.227C239.366 199.879 239.956 199.61 240.722 199.42C241.494 199.231 242.494 199.136 243.722 199.136ZM234.403 184.636C235.517 184.636 236.453 184.758 237.21 185C237.968 185.242 238.574 185.614 239.028 186.114C239.483 186.614 239.809 187.246 240.006 188.011C240.21 188.777 240.312 189.682 240.312 190.727V194.364C240.312 195.606 240.562 196.492 241.062 197.023C241.57 197.553 242.456 197.818 243.722 197.818V199.227C242.494 199.227 241.494 199.133 240.722 198.943C239.956 198.754 239.366 198.485 238.949 198.136C238.532 197.788 238.244 197.371 238.085 196.886C237.934 196.402 237.858 195.864 237.858 195.273V190.727C237.858 189.841 237.752 189.114 237.54 188.545C237.335 187.97 236.979 187.545 236.472 187.273C235.972 187 235.282 186.864 234.403 186.864V184.636ZM243.722 197.818V200.545H241.04V197.818H243.722Z" fill="#35495E" fill-opacity="0.7"/>
<defs>
<linearGradient id="paint0_linear_101_550" x1="1109.31" y1="42.5212" x2="1109.31" y2="144.521" gradientUnits="userSpaceOnUse">
<stop stop-color="#5D4573"/>
<stop offset="1" stop-color="#4B3E59"/>
</linearGradient>
<linearGradient id="paint1_linear_101_550" x1="1156.87" y1="56.8947" x2="1145.35" y2="57.307" gradientUnits="userSpaceOnUse">
<stop offset="0.409" stop-color="#806E91"/>
<stop offset="1" stop-color="#806E91" stop-opacity="0"/>
</linearGradient>
<linearGradient id="paint2_linear_101_550" x1="1063.5" y1="154.785" x2="1148.92" y2="154.785" gradientUnits="userSpaceOnUse">
<stop stop-color="#D6C0EA"/>
<stop offset="1" stop-color="#DCCCED"/>
</linearGradient>
<linearGradient id="paint3_linear_101_550" x1="1104" y1="147.658" x2="1104" y2="153.688" gradientUnits="userSpaceOnUse">
<stop stop-color="#9F8CB4"/>
<stop offset="1" stop-color="#9F8CB4" stop-opacity="0"/>
</linearGradient>
<linearGradient id="paint4_linear_101_550" x1="1057.06" y1="105.153" x2="1068.94" y2="105.153" gradientUnits="userSpaceOnUse">
<stop stop-color="#4E4459"/>
<stop offset="1" stop-color="#453C4E"/>
</linearGradient>
<radialGradient id="paint5_radial_101_550" cx="0" cy="0" r="1" gradientUnits="userSpaceOnUse" gradientTransform="translate(1057.88 147.381) rotate(-90) scale(28.2429 4.97658)">
<stop stop-color="#51475C"/>
<stop offset="1" stop-color="#51475C" stop-opacity="0"/>
</radialGradient>
<linearGradient id="paint6_linear_101_550" x1="1062.27" y1="157.118" x2="1149.69" y2="156.978" gradientUnits="userSpaceOnUse">
<stop stop-color="#512F71"/>
<stop offset="1" stop-color="#4F2E6D"/>
</linearGradient>
<linearGradient id="paint7_linear_101_550" x1="1102.96" y1="530" x2="1027.4" y2="441.102" gradientUnits="userSpaceOnUse">
<stop offset="0.375425" stop-color="#8D6FC7"/>
<stop offset="1" stop-color="#4FC4D8"/>
</linearGradient>
<linearGradient id="paint8_linear_101_550" x1="1102.96" y1="530" x2="1027.4" y2="441.102" gradientUnits="userSpaceOnUse">
<stop offset="0.375425" stop-color="#8D6FC7"/>
<stop offset="1" stop-color="#4FC4D8"/>
</linearGradient>
<linearGradient id="paint9_linear_101_550" x1="1102.96" y1="530" x2="1027.4" y2="441.102" gradientUnits="userSpaceOnUse">
<stop offset="0.375425" stop-color="#8D6FC7"/>
<stop offset="1" stop-color="#4FC4D8"/>
</linearGradient>
<linearGradient id="paint10_linear_101_550" x1="1102.96" y1="530" x2="1027.4" y2="441.102" gradientUnits="userSpaceOnUse">
<stop offset="0.375425" stop-color="#8D6FC7"/>
<stop offset="1" stop-color="#4FC4D8"/>
</linearGradient>
<linearGradient id="paint11_linear_101_550" x1="1102.96" y1="530" x2="1027.4" y2="441.102" gradientUnits="userSpaceOnUse">
<stop offset="0.375425" stop-color="#8D6FC7"/>
<stop offset="1" stop-color="#4FC4D8"/>
</linearGradient>
<linearGradient id="paint12_linear_101_550" x1="1102.96" y1="530" x2="1027.4" y2="441.102" gradientUnits="userSpaceOnUse">
<stop offset="0.375425" stop-color="#8D6FC7"/>
<stop offset="1" stop-color="#4FC4D8"/>
</linearGradient>
<linearGradient id="paint13_linear_101_550" x1="1102.96" y1="530" x2="1027.4" y2="441.102" gradientUnits="userSpaceOnUse">
<stop offset="0.375425" stop-color="#8D6FC7"/>
<stop offset="1" stop-color="#4FC4D8"/>
</linearGradient>
<linearGradient id="paint14_linear_101_550" x1="1102.96" y1="530" x2="1027.4" y2="441.102" gradientUnits="userSpaceOnUse">
<stop offset="0.375425" stop-color="#8D6FC7"/>
<stop offset="1" stop-color="#4FC4D8"/>
</linearGradient>
<linearGradient id="paint15_linear_101_550" x1="1102.96" y1="530" x2="1027.4" y2="441.102" gradientUnits="userSpaceOnUse">
<stop offset="0.375425" stop-color="#8D6FC7"/>
<stop offset="1" stop-color="#4FC4D8"/>
</linearGradient>
<linearGradient id="paint16_linear_101_550" x1="887.21" y1="631.273" x2="885.32" y2="583.17" gradientUnits="userSpaceOnUse">
<stop offset="0.375425" stop-color="#8D6FC7"/>
<stop offset="1" stop-color="#4FC4D8"/>
</linearGradient>
</defs>
</svg>
