<svg width="1200" height="630" viewBox="0 0 1200 630" fill="none" xmlns="http://www.w3.org/2000/svg">
<rect width="1200" height="630" fill="white"/>
<path d="M1068.94 42.5212H1141.19C1143.44 42.5212 1145.6 43.4168 1147.2 45.0108C1148.79 46.6049 1149.69 48.7669 1149.69 51.0212V144.521H1068.94V42.5212V42.5212Z" fill="url(#paint0_linear_104_139)"/>
<path d="M1068.94 42.5212H1141.19C1143.44 42.5212 1145.6 43.4168 1147.2 45.0108C1148.79 46.6049 1149.69 48.7669 1149.69 51.0212V144.521H1068.94V42.5212V42.5212Z" fill="url(#paint1_linear_104_139)"/>
<path d="M1058.31 146.646H1149.69V157.271H1147.56L1145.44 159.396H1058.31V146.646Z" fill="url(#paint2_linear_104_139)"/>
<path d="M1058.31 146.646H1149.69V157.271H1147.56L1145.44 159.396H1058.31V146.646Z" fill="url(#paint3_linear_104_139)"/>
<path d="M1062.56 42.5212C1060.87 42.5212 1059.25 43.1929 1058.05 44.3884C1056.86 45.584 1056.19 47.2055 1056.19 48.8962V153.021H1060.44C1060.44 151.894 1060.89 150.813 1061.68 150.016C1062.48 149.219 1063.56 148.771 1064.69 148.771H1068.94V42.5212H1062.56V42.5212Z" fill="url(#paint4_linear_104_139)"/>
<path d="M1062.56 42.5212C1060.87 42.5212 1059.25 43.1929 1058.05 44.3884C1056.86 45.584 1056.19 47.2055 1056.19 48.8962V153.021H1060.44C1060.44 151.894 1060.89 150.813 1061.68 150.016C1062.48 149.219 1063.56 148.771 1064.69 148.771H1068.94V42.5212H1062.56V42.5212Z" fill="url(#paint5_radial_104_139)"/>
<path d="M1062.56 144.521C1060.87 144.521 1059.25 145.193 1058.05 146.388C1056.86 147.584 1056.19 149.205 1056.19 150.896V155.146C1056.19 156.837 1056.86 158.459 1058.05 159.654C1059.25 160.85 1060.87 161.521 1062.56 161.521H1145.05C1147.82 161.521 1149.69 160.097 1149.69 157.271H1064.69C1063.56 157.271 1062.48 156.823 1061.68 156.026C1060.89 155.229 1060.44 154.148 1060.44 153.021C1060.44 151.894 1060.89 150.813 1061.68 150.016C1062.48 149.219 1063.56 148.771 1064.69 148.771H1149.69V144.521H1062.56Z" fill="url(#paint6_linear_104_139)"/>
<path d="M1082 55.2576L1078.08 51.3419C1077.02 50.2863 1075.31 50.2863 1074.26 51.3419C1073.2 52.3974 1073.2 54.1089 1074.26 55.1645L1078.17 59.0803C1079.23 60.1358 1080.94 60.1358 1082 59.0803C1083.05 58.0247 1083.05 56.3132 1082 55.2576Z" fill="#CEC8D4"/>
<path d="M1082 93.5683L1078.08 89.6525C1077.03 88.5969 1075.32 88.5969 1074.26 89.6525C1073.2 90.7081 1073.2 92.4196 1074.26 93.4751L1078.18 97.3909C1079.23 98.4465 1080.94 98.4465 1082 97.3909C1083.05 96.3353 1083.05 94.6239 1082 93.5683Z" fill="#CD62AB"/>
<path d="M1082 131.818L1078.08 127.903C1077.03 126.847 1075.32 126.847 1074.26 127.903C1073.2 128.958 1073.2 130.67 1074.26 131.725L1078.18 135.641C1079.23 136.697 1080.94 136.697 1082 135.641C1083.05 134.585 1083.05 132.874 1082 131.818Z" fill="#3E8FD4"/>
<path d="M1128.44 55.2576L1124.52 51.3419C1123.47 50.2863 1121.76 50.2863 1120.7 51.3419C1119.64 52.3974 1119.64 54.1089 1120.7 55.1645L1124.62 59.0803C1125.67 60.1358 1127.38 60.1358 1128.44 59.0803C1129.49 58.0247 1129.49 56.3132 1128.44 55.2576Z" fill="#CBC5D1"/>
<path d="M1128.44 93.5683L1124.53 89.6525C1123.47 88.5969 1121.76 88.5969 1120.7 89.6525C1119.65 90.7081 1119.65 92.4196 1120.7 93.4751L1124.62 97.3909C1125.68 98.4465 1127.39 98.4465 1128.44 97.3909C1129.5 96.3353 1129.5 94.6239 1128.44 93.5683Z" fill="#CB60A9"/>
<path d="M1128.44 131.818L1124.53 127.903C1123.47 126.847 1121.76 126.847 1120.7 127.903C1119.65 128.958 1119.65 130.67 1120.7 131.725L1124.62 135.641C1125.68 136.697 1127.39 136.697 1128.44 135.641C1129.5 134.585 1129.5 132.874 1128.44 131.818Z" fill="#3C8DD1"/>
<path d="M1088.04 55.2564L1091.95 51.3406C1093.01 50.285 1094.72 50.285 1095.78 51.3406C1096.83 52.3962 1096.83 54.1077 1095.78 55.1632L1091.86 59.079C1090.81 60.1346 1089.09 60.1346 1088.04 59.079C1086.98 58.0234 1086.98 56.312 1088.04 55.2564Z" fill="#CE62AB"/>
<path d="M1088.04 93.5693L1091.96 89.6535C1093.01 88.5979 1094.72 88.5979 1095.78 89.6535C1096.83 90.7091 1096.83 92.4205 1095.78 93.4761L1091.86 97.3919C1090.81 98.4475 1089.1 98.4475 1088.04 97.3919C1086.98 96.3363 1086.98 94.6249 1088.04 93.5693Z" fill="#418FD3"/>
<path d="M1088.04 131.819L1091.96 127.904C1093.01 126.848 1094.72 126.848 1095.78 127.904C1096.83 128.959 1096.83 130.671 1095.78 131.726L1091.86 135.642C1090.81 136.698 1089.1 136.698 1088.04 135.642C1086.98 134.586 1086.98 132.875 1088.04 131.819Z" fill="#CDC7D3"/>
<path d="M1104.37 74.8625L1108.29 70.9467C1109.34 69.8911 1111.05 69.8911 1112.11 70.9467C1113.16 72.0023 1113.16 73.7137 1112.11 74.7693L1108.19 78.6851C1107.14 79.7407 1105.43 79.7407 1104.37 78.6851C1103.31 77.6295 1103.31 75.9181 1104.37 74.8625Z" fill="#CC61AA"/>
<path d="M1144.36 74.8641L1140.45 70.9483C1139.39 69.8927 1137.68 69.8927 1136.62 70.9483C1135.57 72.0039 1135.57 73.7153 1136.62 74.7709L1140.54 78.6867C1141.6 79.7423 1143.31 79.7423 1144.36 78.6867C1145.42 77.6311 1145.42 75.9197 1144.36 74.8641Z" fill="#CAC5D1"/>
<path d="M1121.8 72.114H1127.34C1128.83 72.114 1130.04 73.3242 1130.04 74.817C1130.04 76.3098 1128.83 77.52 1127.34 77.52H1121.8C1120.31 77.52 1119.1 76.3098 1119.1 74.817C1119.1 73.3242 1120.31 72.114 1121.8 72.114Z" fill="#428DD1"/>
<path d="M1089.14 72.114H1094.68C1096.17 72.114 1097.38 73.3242 1097.38 74.817C1097.38 76.3098 1096.17 77.52 1094.68 77.52H1089.14C1087.65 77.52 1086.44 76.3098 1086.44 74.817C1086.44 73.3242 1087.65 72.114 1089.14 72.114Z" fill="#CDC7D3"/>
<path d="M1104.37 113.116L1108.29 109.2C1109.34 108.144 1111.05 108.144 1112.11 109.2C1113.17 110.255 1113.17 111.967 1112.11 113.023L1108.19 116.938C1107.14 117.994 1105.43 117.994 1104.37 116.938C1103.32 115.883 1103.32 114.171 1104.37 113.116Z" fill="#3F8DD2"/>
<path d="M1144.36 113.114L1140.45 109.198C1139.39 108.143 1137.68 108.143 1136.62 109.198C1135.57 110.254 1135.57 111.965 1136.62 113.021L1140.54 116.937C1141.6 117.992 1143.31 117.992 1144.36 116.937C1145.42 115.881 1145.42 114.17 1144.36 113.114Z" fill="#CA5FA8"/>
<path d="M1079.65 72.0503V77.588C1079.65 79.0808 1078.44 80.291 1076.94 80.291C1075.45 80.291 1074.24 79.0808 1074.24 77.588V72.0503C1074.24 70.5574 1075.45 69.3473 1076.94 69.3473C1078.44 69.3473 1079.65 70.5574 1079.65 72.0503Z" fill="#438FD4"/>
<path d="M1105.47 52.5088H1111.01C1112.5 52.5088 1113.71 53.719 1113.71 55.2118C1113.71 56.7046 1112.5 57.9148 1111.01 57.9148H1105.47C1103.98 57.9148 1102.77 56.7046 1102.77 55.2118C1102.77 53.719 1103.98 52.5088 1105.47 52.5088Z" fill="#448ED2"/>
<path d="M1121.8 110.364H1127.34C1128.83 110.364 1130.04 111.574 1130.04 113.067C1130.04 114.56 1128.83 115.77 1127.34 115.77H1121.8C1120.31 115.77 1119.1 114.56 1119.1 113.067C1119.1 111.574 1120.31 110.364 1121.8 110.364Z" fill="#CBC5D1"/>
<path d="M1105.47 90.8225H1111.01C1112.5 90.8225 1113.71 92.0327 1113.71 93.5255C1113.71 95.0183 1112.5 96.2285 1111.01 96.2285H1105.47C1103.98 96.2285 1102.77 95.0183 1102.77 93.5255C1102.77 92.0327 1103.98 90.8225 1105.47 90.8225Z" fill="#CFCAD6"/>
<path d="M1105.47 129.073H1111.01C1112.5 129.073 1113.71 130.283 1113.71 131.776C1113.71 133.268 1112.5 134.479 1111.01 134.479H1105.47C1103.98 134.479 1102.77 133.268 1102.77 131.776C1102.77 130.283 1103.98 129.073 1105.47 129.073Z" fill="#CC60A9"/>
<path d="M1089.14 110.364H1094.68C1096.17 110.364 1097.38 111.574 1097.38 113.067C1097.38 114.56 1096.17 115.77 1094.68 115.77H1089.14C1087.65 115.77 1086.44 114.56 1086.44 113.067C1086.44 111.574 1087.65 110.364 1089.14 110.364Z" fill="#CD61AA"/>
<path d="M1143.2 52.445V57.9828C1143.2 59.4756 1141.99 60.6858 1140.49 60.6858C1139 60.6858 1137.79 59.4756 1137.79 57.9828V52.445C1137.79 50.9522 1139 49.742 1140.49 49.742C1141.99 49.742 1143.2 50.9522 1143.2 52.445Z" fill="#CA61A9"/>
<path d="M1143.2 90.7545V96.2922C1143.2 97.7851 1141.99 98.9952 1140.49 98.9952C1139 98.9952 1137.79 97.7851 1137.79 96.2922V90.7545C1137.79 89.2617 1139 88.0515 1140.49 88.0515C1141.99 88.0515 1143.2 89.2617 1143.2 90.7545Z" fill="#418DD1"/>
<path d="M1143.2 129.004V134.542C1143.2 136.035 1141.99 137.245 1140.49 137.245C1139 137.245 1137.79 136.035 1137.79 134.542V129.004C1137.79 127.512 1139 126.301 1140.49 126.301C1141.99 126.301 1143.2 127.512 1143.2 129.004Z" fill="#CAC5D1"/>
<path d="M1079.65 110.3V115.838C1079.65 117.331 1078.44 118.541 1076.94 118.541C1075.45 118.541 1074.24 117.331 1074.24 115.838V110.3C1074.24 108.807 1075.45 107.597 1076.94 107.597C1078.44 107.597 1079.65 108.807 1079.65 110.3Z" fill="#CEC8D4"/>
<text fill="black" xml:space="preserve" style="white-space: pre" font-family="Inter" font-size="64" letter-spacing="0em"><tspan x="48" y="299.773">{{name1}}&#10;</tspan><tspan x="48" y="376.773">{{name2}}&#10;</tspan><tspan x="48" y="453.773">{{name3}}</tspan></text>
<text fill="#35495E" fill-opacity="0.5" xml:space="preserve" style="white-space: pre" font-family="Inter" font-size="26" letter-spacing="0em"><tspan x="812" y="564.955">&#x8bb0;&#x5f55;&#x56de;&#x5fc6;&#xff0c;&#x77e5;&#x8bc6;&#x548c;&#x7545;&#x60f3;&#x7684;&#x5730;&#x65b9;</tspan></text>
<path d="M1012.71 498.912C1012.71 499.661 1012.07 500.612 1010.8 501.765C1009.77 502.693 1008.95 503.217 1008.35 503.337C1008.31 503.352 1008.26 503.359 1008.22 503.359C1008.01 503.359 1007.87 503.21 1007.79 502.91L1007.41 499.451C1007.3 498.553 1007.24 498.096 1007.23 498.081V498.014L1006.89 498.328C1003.76 501.278 1000.57 502.933 997.324 503.292C996.95 503.337 996.583 503.359 996.224 503.359C993.304 503.359 991.215 501.667 989.957 498.283L989.598 498.62C986.513 501.555 983.271 503.135 979.872 503.359C979.632 503.374 979.4 503.382 979.176 503.382C976.945 503.382 975.193 502.364 973.92 500.327C973.755 500.073 973.605 499.803 973.471 499.519C972.932 498.41 972.662 497.22 972.662 495.947C972.662 493.671 973.546 491.298 975.312 488.827C976.855 486.716 978.622 485.121 980.613 484.043C981.617 483.459 982.672 483.13 983.78 483.055C983.825 483.055 983.923 483.055 984.072 483.055C986.109 483.055 987.329 483.594 987.733 484.672C987.853 484.986 987.913 485.346 987.913 485.75C987.913 486.663 987.561 487.494 986.857 488.243C986.169 488.962 985.345 489.321 984.387 489.321C984.237 489.336 984.132 489.344 984.072 489.344C983.638 489.344 983.181 489.157 982.702 488.782C982.088 488.333 981.474 488.063 980.86 487.974C980.651 487.959 980.426 487.951 980.187 487.951C979.108 487.951 978.472 488.161 978.277 488.58C978.382 488.34 978.352 488.4 978.188 488.76C977.768 489.703 977.559 490.699 977.559 491.747C977.559 493.873 978.285 495.61 979.737 496.958C980.666 497.841 981.669 498.336 982.747 498.44C982.867 498.455 983.032 498.463 983.241 498.463C984.754 498.463 986.221 498.133 987.644 497.475C988.093 497.265 988.415 497.063 988.609 496.868C988.969 496.509 989.283 495.783 989.553 494.689C989.987 493.012 990.451 491.695 990.945 490.736C991.664 489.359 992.667 488.026 993.955 486.738C996.351 484.342 998.627 483.115 1000.78 483.055H1001.05C1003.48 483.055 1004.69 483.968 1004.69 485.795C1004.69 487.083 1004.07 488.093 1002.83 488.827C1002.48 489.037 1002.16 489.179 1001.86 489.254C1001.7 489.299 1001.45 489.321 1001.12 489.321C1000.52 489.321 999.967 489.127 999.458 488.737C998.904 488.333 998.372 488.093 997.863 488.019C997.609 487.974 997.324 487.951 997.01 487.951H996.74C995.587 487.951 994.891 488.558 994.651 489.771C994.547 490.22 994.494 490.826 994.494 491.59C994.494 493.746 995.205 495.506 996.628 496.868C997.496 497.707 998.462 498.223 999.525 498.418C999.675 498.448 999.937 498.463 1000.31 498.463C1001.9 498.463 1003.42 498.074 1004.87 497.295C1005.47 496.98 1005.86 496.681 1006.04 496.396C1006.56 495.633 1006.86 494.66 1006.94 493.477C1007.03 492.024 1007.12 491.051 1007.23 490.557C1007.3 490.167 1007.4 489.785 1007.52 489.411C1007.9 488.273 1008.59 487.053 1009.61 485.75C1010.72 484.357 1011.81 483.474 1012.89 483.1C1012.99 483.07 1013.11 483.055 1013.25 483.055C1013.5 483.055 1013.63 483.182 1013.63 483.437C1013.63 483.751 1013.47 484.14 1013.14 484.604C1012.55 485.383 1012.17 486.282 1011.99 487.3C1011.89 487.989 1011.83 488.782 1011.83 489.681C1011.83 491.103 1012.04 493.364 1012.46 496.464C1012.63 497.647 1012.71 498.463 1012.71 498.912Z" fill="url(#paint7_linear_104_139)"/>
<path d="M1016.55 489.568C1016.55 488.999 1017.11 488.131 1018.24 486.963C1019.72 485.421 1021.22 484.365 1022.75 483.796C1023.39 483.556 1023.98 483.437 1024.5 483.437H1024.95C1026 483.437 1026.72 484.013 1027.11 485.166C1027.23 485.525 1027.29 485.862 1027.29 486.177V489.276C1027.29 489.771 1027.29 490.25 1027.29 490.714C1027.29 502.468 1026.66 510.786 1025.4 515.668C1024.67 518.483 1023.54 520.826 1022.03 522.698C1021.73 523.073 1021.39 523.469 1021 523.889C1019.93 525.012 1019.02 525.686 1018.26 525.91C1018.14 525.94 1018.03 525.955 1017.94 525.955C1017.69 525.955 1017.56 525.828 1017.56 525.573C1017.56 525.199 1017.97 524.465 1018.8 523.372C1019.2 522.818 1019.46 522.444 1019.56 522.249C1021.45 518.236 1022.39 508.533 1022.39 493.14C1022.39 491.328 1022.34 490.19 1022.23 489.726C1022.08 489.112 1021.78 488.692 1021.33 488.468C1021.16 488.378 1020.97 488.333 1020.77 488.333C1019.96 488.333 1019.24 488.603 1018.59 489.142C1018.09 489.576 1017.71 489.83 1017.47 489.905C1017.31 489.965 1017.13 489.995 1016.93 489.995C1016.68 489.995 1016.55 489.853 1016.55 489.568Z" fill="url(#paint8_linear_104_139)"/>
<path d="M1020.48 478.315C1020.17 478.211 1019.98 478.008 1019.92 477.709C1019.92 477.514 1020.05 477.192 1020.32 476.743L1023.36 471.555C1025.65 467.871 1027.75 465.408 1029.67 464.165C1030.82 463.416 1031.97 463.042 1033.13 463.042C1034.7 463.042 1035.84 463.596 1036.56 464.704C1036.97 465.318 1037.17 466.029 1037.17 466.838C1037.17 468.605 1036.38 470.229 1034.79 471.712C1033.88 472.565 1033.07 473.075 1032.36 473.239C1032.29 473.254 1032.21 473.262 1032.14 473.262C1031.85 473.262 1031.7 473.127 1031.69 472.857C1031.69 472.573 1031.88 472.199 1032.27 471.734C1032.81 471.09 1033.12 470.454 1033.19 469.825C1033.21 469.705 1033.22 469.578 1033.22 469.443C1033.22 468.455 1032.92 467.744 1032.32 467.31C1032.06 467.115 1031.79 467.018 1031.49 467.018C1030.3 467.018 1028.57 468.463 1026.28 471.353L1022.03 476.945C1021.66 477.395 1021.33 477.754 1021.07 478.023C1020.89 478.218 1020.69 478.315 1020.48 478.315Z" fill="url(#paint9_linear_104_139)"/>
<path d="M1045.32 487.3C1043.87 487.165 1042.37 487.09 1040.83 487.075C1037.69 487.075 1035.46 487.547 1034.16 488.49L1033.22 489.187C1032.98 489.321 1032.72 489.389 1032.45 489.389C1032.18 489.389 1032.05 489.246 1032.05 488.962C1032.06 488.363 1032.61 487.502 1033.69 486.379C1033.88 486.184 1034.09 485.99 1034.29 485.795C1036.26 483.998 1038.46 482.89 1040.9 482.471C1041.99 482.276 1043.3 482.179 1044.83 482.179C1047.05 482.179 1050.52 482.471 1055.25 483.055C1059.86 483.624 1063.26 483.908 1065.45 483.908C1068.53 483.908 1070.71 483.437 1071.98 482.493L1072.91 481.774C1073.13 481.64 1073.38 481.572 1073.67 481.572C1073.94 481.572 1074.07 481.7 1074.07 481.954C1074.07 482.628 1073.46 483.579 1072.23 484.807C1071.53 485.51 1070.78 486.124 1069.99 486.648C1068.13 487.891 1065.8 488.595 1063 488.76C1062.46 488.79 1061.88 488.805 1061.25 488.805C1059.27 488.805 1056.02 488.543 1051.5 488.019L1048.02 487.592L1047.61 487.929C1044.31 490.879 1042.03 493.611 1040.79 496.127C1039.84 498.044 1039.37 499.983 1039.37 501.944C1039.37 505.673 1040.6 508.84 1043.05 511.445C1045.2 513.736 1047.89 515.204 1051.14 515.848C1052.2 516.072 1053.28 516.185 1054.38 516.185C1056.82 516.185 1059.11 515.675 1061.27 514.657C1062.3 514.163 1063.22 513.572 1064.03 512.883C1064.83 512.194 1065.61 511.206 1066.39 509.918C1067.33 508.361 1067.81 506.968 1067.81 505.74C1067.81 504.827 1067.56 504.041 1067.07 503.382C1066.66 502.873 1066.42 502.476 1066.35 502.191C1066.29 501.982 1066.26 501.742 1066.26 501.473C1066.26 499.945 1066.96 498.86 1068.37 498.216C1068.89 497.976 1069.37 497.856 1069.81 497.856C1071.08 497.856 1071.94 498.47 1072.39 499.698C1072.6 500.267 1072.7 500.949 1072.7 501.742C1072.7 504.258 1071.22 507.38 1068.26 511.108C1067.03 512.636 1065.86 513.901 1064.75 514.904C1060.18 519.022 1055.36 521.081 1050.26 521.081C1046.51 521.081 1043.2 520.018 1040.34 517.892C1037.7 515.945 1035.93 513.444 1035.04 510.39C1034.65 509.087 1034.45 507.747 1034.45 506.369C1034.45 501.413 1037.05 496.112 1042.25 490.467C1043.11 489.523 1044.06 488.565 1045.08 487.592C1045.24 487.427 1045.32 487.33 1045.32 487.3Z" fill="url(#paint10_linear_104_139)"/>
<path d="M1050.08 478.495C1049.65 478.39 1049.4 478.143 1049.34 477.754C1049.34 477.529 1049.43 477.305 1049.59 477.08C1049.88 476.721 1051.75 474.999 1055.21 471.914C1058.56 468.934 1060.76 467.092 1061.81 466.389C1062.29 466.074 1062.72 465.917 1063.11 465.917C1064.04 465.917 1064.6 466.306 1064.8 467.085C1064.83 467.205 1064.84 467.325 1064.84 467.444C1064.84 467.998 1064.51 468.59 1063.85 469.219C1063.04 469.982 1060.87 471.57 1057.32 473.98C1053.63 476.526 1051.38 477.986 1050.56 478.36C1050.35 478.45 1050.19 478.495 1050.08 478.495Z" fill="url(#paint11_linear_104_139)"/>
<path d="M1090.65 497.07C1091.37 497.07 1091.92 497.25 1092.31 497.609C1092.7 497.969 1093.03 498.193 1093.3 498.283C1093.69 498.403 1094.2 498.463 1094.83 498.463C1095.61 498.463 1096.41 498.291 1097.23 497.946C1097.72 496.958 1097.97 495.91 1097.97 494.802C1097.97 492.69 1097.22 490.961 1095.7 489.613C1094.76 488.76 1093.7 488.228 1092.51 488.019C1092.2 487.959 1091.87 487.929 1091.53 487.929C1089.88 487.929 1088.21 488.475 1086.52 489.568C1085.78 490.033 1085.27 490.467 1084.97 490.871C1084.28 491.799 1083.82 492.982 1083.6 494.42C1083.36 495.887 1083.17 496.846 1083.04 497.295C1082.57 498.747 1081.64 500.177 1080.23 501.585C1079.19 502.618 1078.34 503.202 1077.67 503.337C1077.59 503.352 1077.52 503.359 1077.46 503.359C1077.21 503.359 1077.08 503.232 1077.08 502.978C1077.08 502.543 1077.23 502.154 1077.53 501.81C1077.97 501.315 1078.26 500.739 1078.41 500.08C1078.5 499.661 1078.57 499.159 1078.61 498.575C1078.64 498.126 1078.66 495.341 1078.66 490.22C1078.67 486.596 1078.74 483.661 1078.86 481.415C1079.08 477.028 1079.55 473.688 1080.25 471.397C1081.1 468.627 1082.58 466.201 1084.67 464.12C1085.83 462.967 1086.73 462.391 1087.37 462.391C1087.64 462.391 1087.77 462.525 1087.77 462.795C1087.77 463.304 1087.28 464.135 1086.29 465.288C1086.11 465.483 1086.01 465.61 1085.98 465.67C1084.41 468.38 1083.62 474.482 1083.62 483.976C1083.6 485.069 1083.6 486.476 1083.6 488.198L1083.57 489.434L1084.05 488.984C1086.07 487.008 1088.21 485.473 1090.47 484.38C1092.33 483.481 1094.06 483.032 1095.66 483.032C1097.69 483.032 1099.41 483.773 1100.8 485.256C1102.18 486.738 1102.87 488.565 1102.87 490.736C1102.87 493.671 1101.45 496.554 1098.62 499.384C1095.97 502.034 1093.32 503.359 1090.67 503.359C1088.29 503.359 1087.1 502.431 1087.1 500.574C1087.1 499.661 1087.46 498.837 1088.18 498.104C1088.87 497.415 1089.69 497.07 1090.65 497.07Z" fill="url(#paint12_linear_104_139)"/>
<path d="M1092.33 467.736C1092.05 467.736 1091.9 467.594 1091.88 467.31C1091.88 466.905 1092.25 466.299 1092.99 465.49C1094.26 464.083 1095.68 463.237 1097.25 462.952C1097.58 462.892 1097.91 462.862 1098.24 462.862C1099.66 462.862 1100.75 463.401 1101.5 464.479C1101.96 465.138 1102.19 465.895 1102.19 466.748C1102.19 469.488 1100.23 471.974 1096.31 474.205C1095.74 474.52 1095.14 474.826 1094.51 475.126C1093.63 475.56 1092.13 476.212 1090.02 477.08L1088.07 477.911C1087.56 478.136 1087.23 478.248 1087.08 478.248C1086.69 478.248 1086.48 478.068 1086.45 477.709C1086.45 477.305 1087.28 476.631 1088.94 475.688L1093.28 473.194C1096.14 471.472 1097.69 470.005 1097.93 468.792C1097.96 468.657 1097.97 468.53 1097.97 468.41C1097.97 468.021 1097.77 467.624 1097.37 467.22C1096.87 466.726 1096.19 466.479 1095.32 466.479C1094.77 466.479 1094.21 466.696 1093.64 467.13C1093.16 467.519 1092.72 467.721 1092.33 467.736Z" fill="url(#paint13_linear_104_139)"/>
<path d="M1104.87 489.995C1104.61 489.995 1104.49 489.853 1104.49 489.568C1104.49 488.969 1105.05 488.078 1106.19 486.896C1107.35 485.698 1108.56 484.792 1109.83 484.178C1110.89 483.684 1111.88 483.437 1112.8 483.437C1114.07 483.437 1114.85 484.238 1115.15 485.84C1115.2 486.064 1115.22 486.656 1115.22 487.614L1115.24 489.074L1115.76 488.558C1118.13 486.252 1120.45 484.642 1122.72 483.729C1123.68 483.309 1124.73 483.085 1125.87 483.055C1125.96 483.055 1126.04 483.055 1126.12 483.055C1128.24 483.055 1129.97 484.11 1131.3 486.222C1131.89 487.165 1132.23 487.996 1132.34 488.715C1132.4 488.715 1132.58 488.543 1132.88 488.198C1133.64 487.36 1134.71 486.469 1136.09 485.525C1138.45 483.878 1140.6 483.055 1142.51 483.055C1144.59 483.055 1146.27 484.028 1147.54 485.975C1147.72 486.244 1147.88 486.514 1148.01 486.783C1148.6 487.936 1148.89 489.194 1148.89 490.557C1148.89 493.117 1147.87 495.64 1145.84 498.126C1145.19 498.92 1144.45 499.683 1143.61 500.417C1141.29 502.334 1139.15 503.314 1137.19 503.359C1134.84 503.359 1133.66 502.446 1133.66 500.619C1133.66 499.376 1134.19 498.403 1135.26 497.699C1135.89 497.28 1136.54 497.07 1137.21 497.07C1137.81 497.07 1138.37 497.265 1138.9 497.654C1139.46 498.074 1140 498.321 1140.49 498.396C1140.76 498.44 1141.05 498.463 1141.37 498.463C1142.32 498.463 1142.92 498.306 1143.16 497.991C1143.22 497.931 1143.29 497.812 1143.37 497.632C1143.78 496.718 1143.99 495.738 1143.99 494.689C1143.99 492.863 1143.43 491.283 1142.31 489.95C1142 489.576 1141.66 489.254 1141.3 488.984C1140.4 488.296 1139.43 487.951 1138.38 487.951C1137.17 487.951 1136.06 488.296 1135.05 488.984C1134.61 489.284 1134.25 489.628 1134 490.018C1133.5 490.766 1132.88 492.002 1132.13 493.724C1131.55 495.071 1131 496.134 1130.47 496.913C1129.42 498.5 1128.14 499.893 1126.61 501.091C1125.02 502.334 1123.44 503.082 1121.87 503.337C1121.75 503.352 1121.54 503.359 1121.24 503.359C1118.77 503.285 1117.51 502.379 1117.45 500.642C1117.45 499.938 1117.69 499.234 1118.19 498.53C1118.88 497.557 1119.85 497.07 1121.11 497.07C1121.63 497.07 1122.15 497.257 1122.68 497.632C1123.28 498.081 1123.87 498.343 1124.45 498.418C1124.68 498.448 1124.92 498.463 1125.19 498.463C1126.12 498.463 1126.68 498.328 1126.88 498.059C1126.94 497.984 1127.01 497.864 1127.08 497.699C1127.46 496.801 1127.64 495.82 1127.64 494.757C1127.64 493.17 1127.17 491.702 1126.23 490.354C1125.09 488.737 1123.64 487.929 1121.89 487.929C1120.5 487.929 1119.1 488.453 1117.69 489.501C1117.44 489.681 1117.22 489.86 1117.04 490.04C1116.02 491.058 1115.43 492.541 1115.27 494.487C1115.24 494.892 1115.21 495.865 1115.18 497.407C1115 505.628 1114.32 511.962 1113.13 516.409C1112.94 517.143 1112.73 517.794 1112.5 518.363C1111.67 520.564 1110.38 522.511 1108.64 524.203C1107.46 525.356 1106.54 525.94 1105.88 525.955C1105.62 525.955 1105.5 525.828 1105.5 525.573C1105.5 525.169 1105.68 524.742 1106.04 524.293C1106.68 523.544 1107.16 522.84 1107.47 522.182C1108.06 520.954 1108.54 519.284 1108.91 517.173C1109.57 513.399 1109.98 509.289 1110.15 504.842C1110.28 501.622 1110.35 497.505 1110.35 492.488C1110.35 490.407 1110.09 489.127 1109.56 488.647C1109.34 488.438 1109.05 488.333 1108.71 488.333C1107.9 488.333 1107.17 488.603 1106.53 489.142C1106.02 489.576 1105.65 489.83 1105.41 489.905C1105.24 489.965 1105.06 489.995 1104.87 489.995Z" fill="url(#paint14_linear_104_139)"/>
<path d="M1122.43 478.293C1122.06 478.293 1121.87 478.106 1121.87 477.731C1121.87 477.537 1121.96 477.312 1122.14 477.058L1125.91 472.184C1127.49 470.177 1128.73 468.71 1129.64 467.781C1132.53 464.801 1135.14 463.312 1137.48 463.312C1138.95 463.312 1140.06 463.828 1140.8 464.861C1141.24 465.475 1141.46 466.172 1141.46 466.95C1141.46 468.313 1140.86 469.698 1139.66 471.105C1138.61 472.348 1137.53 473.097 1136.42 473.352C1136.25 473.396 1136.08 473.419 1135.93 473.419C1135.56 473.419 1135.37 473.284 1135.37 473.015C1135.37 472.82 1135.59 472.468 1136.02 471.959C1136.75 471.061 1137.14 470.2 1137.19 469.376C1137.19 469.286 1137.19 469.204 1137.19 469.129C1137.19 468.23 1136.91 467.617 1136.36 467.287C1136.15 467.152 1135.89 467.085 1135.59 467.085C1134.79 467.085 1133.67 467.714 1132.25 468.972C1131.32 469.78 1129.73 471.338 1127.49 473.644L1124.27 476.878C1123.38 477.746 1122.84 478.211 1122.68 478.271C1122.62 478.285 1122.54 478.293 1122.43 478.293Z" fill="url(#paint15_linear_104_139)"/>
<text fill="#35495E" fill-opacity="0.5" xml:space="preserve" style="white-space: pre" font-family="Inter" font-size="26" letter-spacing="0em"><tspan x="48" y="564.955">N&#xf3;l&#xeb;base</tspan></text>
<rect y="610" width="1200" height="20" fill="#8D6FC7"/>
<rect y="610" width="1200" height="20" fill="url(#paint16_linear_104_139)"/>
<text fill="#35495E" fill-opacity="0.7" xml:space="preserve" style="white-space: pre" font-family="Inter" font-size="32" letter-spacing="0px"><tspan x="48.0938" y="220.136">{{category}}</tspan></text>
<defs>
<linearGradient id="paint0_linear_104_139" x1="1109.31" y1="42.5212" x2="1109.31" y2="144.521" gradientUnits="userSpaceOnUse">
<stop stop-color="#5D4573"/>
<stop offset="1" stop-color="#4B3E59"/>
</linearGradient>
<linearGradient id="paint1_linear_104_139" x1="1156.87" y1="56.8947" x2="1145.35" y2="57.307" gradientUnits="userSpaceOnUse">
<stop offset="0.409" stop-color="#806E91"/>
<stop offset="1" stop-color="#806E91" stop-opacity="0"/>
</linearGradient>
<linearGradient id="paint2_linear_104_139" x1="1063.5" y1="154.785" x2="1148.92" y2="154.785" gradientUnits="userSpaceOnUse">
<stop stop-color="#D6C0EA"/>
<stop offset="1" stop-color="#DCCCED"/>
</linearGradient>
<linearGradient id="paint3_linear_104_139" x1="1104" y1="147.658" x2="1104" y2="153.688" gradientUnits="userSpaceOnUse">
<stop stop-color="#9F8CB4"/>
<stop offset="1" stop-color="#9F8CB4" stop-opacity="0"/>
</linearGradient>
<linearGradient id="paint4_linear_104_139" x1="1057.06" y1="105.153" x2="1068.94" y2="105.153" gradientUnits="userSpaceOnUse">
<stop stop-color="#4E4459"/>
<stop offset="1" stop-color="#453C4E"/>
</linearGradient>
<radialGradient id="paint5_radial_104_139" cx="0" cy="0" r="1" gradientUnits="userSpaceOnUse" gradientTransform="translate(1057.88 147.381) rotate(-90) scale(28.2429 4.97658)">
<stop stop-color="#51475C"/>
<stop offset="1" stop-color="#51475C" stop-opacity="0"/>
</radialGradient>
<linearGradient id="paint6_linear_104_139" x1="1062.27" y1="157.118" x2="1149.69" y2="156.978" gradientUnits="userSpaceOnUse">
<stop stop-color="#512F71"/>
<stop offset="1" stop-color="#4F2E6D"/>
</linearGradient>
<linearGradient id="paint7_linear_104_139" x1="1102.96" y1="530" x2="1027.4" y2="441.102" gradientUnits="userSpaceOnUse">
<stop offset="0.375425" stop-color="#8D6FC7"/>
<stop offset="1" stop-color="#4FC4D8"/>
</linearGradient>
<linearGradient id="paint8_linear_104_139" x1="1102.96" y1="530" x2="1027.4" y2="441.102" gradientUnits="userSpaceOnUse">
<stop offset="0.375425" stop-color="#8D6FC7"/>
<stop offset="1" stop-color="#4FC4D8"/>
</linearGradient>
<linearGradient id="paint9_linear_104_139" x1="1102.96" y1="530" x2="1027.4" y2="441.102" gradientUnits="userSpaceOnUse">
<stop offset="0.375425" stop-color="#8D6FC7"/>
<stop offset="1" stop-color="#4FC4D8"/>
</linearGradient>
<linearGradient id="paint10_linear_104_139" x1="1102.96" y1="530" x2="1027.4" y2="441.102" gradientUnits="userSpaceOnUse">
<stop offset="0.375425" stop-color="#8D6FC7"/>
<stop offset="1" stop-color="#4FC4D8"/>
</linearGradient>
<linearGradient id="paint11_linear_104_139" x1="1102.96" y1="530" x2="1027.4" y2="441.102" gradientUnits="userSpaceOnUse">
<stop offset="0.375425" stop-color="#8D6FC7"/>
<stop offset="1" stop-color="#4FC4D8"/>
</linearGradient>
<linearGradient id="paint12_linear_104_139" x1="1102.96" y1="530" x2="1027.4" y2="441.102" gradientUnits="userSpaceOnUse">
<stop offset="0.375425" stop-color="#8D6FC7"/>
<stop offset="1" stop-color="#4FC4D8"/>
</linearGradient>
<linearGradient id="paint13_linear_104_139" x1="1102.96" y1="530" x2="1027.4" y2="441.102" gradientUnits="userSpaceOnUse">
<stop offset="0.375425" stop-color="#8D6FC7"/>
<stop offset="1" stop-color="#4FC4D8"/>
</linearGradient>
<linearGradient id="paint14_linear_104_139" x1="1102.96" y1="530" x2="1027.4" y2="441.102" gradientUnits="userSpaceOnUse">
<stop offset="0.375425" stop-color="#8D6FC7"/>
<stop offset="1" stop-color="#4FC4D8"/>
</linearGradient>
<linearGradient id="paint15_linear_104_139" x1="1102.96" y1="530" x2="1027.4" y2="441.102" gradientUnits="userSpaceOnUse">
<stop offset="0.375425" stop-color="#8D6FC7"/>
<stop offset="1" stop-color="#4FC4D8"/>
</linearGradient>
<linearGradient id="paint16_linear_104_139" x1="887.21" y1="631.273" x2="885.32" y2="583.17" gradientUnits="userSpaceOnUse">
<stop offset="0.375425" stop-color="#8D6FC7"/>
<stop offset="1" stop-color="#4FC4D8"/>
</linearGradient>
</defs>
</svg>
